<svg width="40" height="40" viewBox="0 0 40 40" fill="none" xmlns="http://www.w3.org/2000/svg">
<path opacity="0.2" d="M31.2501 7.5H8.75006C8.58591 7.5 8.42336 7.53233 8.27171 7.59515C8.12005 7.65797 7.98225 7.75004 7.86617 7.86611C7.7501 7.98219 7.65803 8.11999 7.59521 8.27164C7.53239 8.4233 7.50006 8.58585 7.50006 8.75V31.25C7.50006 31.4142 7.53239 31.5767 7.59521 31.7284C7.65803 31.88 7.7501 32.0178 7.86617 32.1339C7.98225 32.25 8.12005 32.342 8.27171 32.4049C8.42336 32.4677 8.58591 32.5 8.75006 32.5H31.2501C31.4142 32.5 31.5768 32.4677 31.7284 32.4049C31.8801 32.342 32.0179 32.25 32.1339 32.1339C32.25 32.0178 32.3421 31.88 32.4049 31.7284C32.4677 31.5767 32.5001 31.4142 32.5001 31.25V8.75C32.5001 8.58585 32.4677 8.4233 32.4049 8.27164C32.3421 8.11999 32.25 7.98219 32.1339 7.86611C32.0179 7.75004 31.8801 7.65797 31.7284 7.59515C31.5768 7.53233 31.4142 7.5 31.2501 7.5ZM24.3751 24.375H15.6251V15.625H24.3751V24.375Z" fill="#7534FF"/>
<path d="M24.3751 15.625H15.6251V24.375H24.3751V15.625Z" stroke="#7534FF" stroke-width="2.5" stroke-linecap="round" stroke-linejoin="round"/>
<path d="M31.2501 7.5H8.75006C8.05971 7.5 7.50006 8.05964 7.50006 8.75V31.25C7.50006 31.9404 8.05971 32.5 8.75006 32.5H31.2501C31.9404 32.5 32.5001 31.9404 32.5001 31.25V8.75C32.5001 8.05964 31.9404 7.5 31.2501 7.5Z" stroke="#7534FF" stroke-width="2.5" stroke-linecap="round" stroke-linejoin="round"/>
<path d="M32.5001 16.25H36.2501" stroke="#7534FF" stroke-width="2.5" stroke-linecap="round" stroke-linejoin="round"/>
<path d="M32.5001 23.75H36.2501" stroke="#7534FF" stroke-width="2.5" stroke-linecap="round" stroke-linejoin="round"/>
<path d="M3.75006 16.25H7.50006" stroke="#7534FF" stroke-width="2.5" stroke-linecap="round" stroke-linejoin="round"/>
<path d="M3.75006 23.75H7.50006" stroke="#7534FF" stroke-width="2.5" stroke-linecap="round" stroke-linejoin="round"/>
<path d="M23.7501 32.5V36.25" stroke="#7534FF" stroke-width="2.5" stroke-linecap="round" stroke-linejoin="round"/>
<path d="M16.2501 32.5V36.25" stroke="#7534FF" stroke-width="2.5" stroke-linecap="round" stroke-linejoin="round"/>
<path d="M23.7501 3.75V7.5" stroke="#7534FF" stroke-width="2.5" stroke-linecap="round" stroke-linejoin="round"/>
<path d="M16.2501 3.75V7.5" stroke="#7534FF" stroke-width="2.5" stroke-linecap="round" stroke-linejoin="round"/>
</svg>
