<svg width="140" height="91" viewBox="0 0 140 91" fill="none" xmlns="http://www.w3.org/2000/svg">
<path fill-rule="evenodd" clip-rule="evenodd" d="M15.3886 90.992L16.0128 89.47L14.1692 85.5724H15.5426L16.6527 87.91L17.6008 85.5724H18.9449L16.7327 90.992H15.3886Z" fill="#8F9AA3"/>
<path fill-rule="evenodd" clip-rule="evenodd" d="M25.1448 85.6094C25.5174 85.6094 25.8666 85.6796 26.1944 85.8215C26.5221 85.9634 26.807 86.1539 27.0527 86.3976C27.2985 86.6382 27.4897 86.9243 27.6322 87.25C27.7745 87.577 27.8448 87.928 27.8448 88.299C27.8448 88.67 27.7745 89.019 27.6322 89.347C27.4897 89.674 27.2985 89.957 27.0527 90.201C26.807 90.442 26.5221 90.634 26.1944 90.776C25.8666 90.918 25.5174 90.988 25.1448 90.988C24.7721 90.988 24.4229 90.918 24.0952 90.776C23.7675 90.634 23.4827 90.444 23.2407 90.201C22.9989 89.96 22.8077 89.674 22.6652 89.347C22.5228 89.02 22.4526 88.67 22.4526 88.299C22.4526 87.928 22.5228 87.58 22.6652 87.25C22.8077 86.9243 22.9989 86.6405 23.2407 86.3976C23.4827 86.1562 23.7694 85.9634 24.0952 85.8215C24.4229 85.6819 24.7721 85.6094 25.1448 85.6094ZM25.1487 89.748C25.3496 89.748 25.5388 89.711 25.7144 89.635C25.89 89.559 26.0441 89.456 26.1768 89.323C26.3094 89.192 26.4129 89.038 26.4889 88.863C26.565 88.688 26.6021 88.499 26.6021 88.299C26.6021 88.099 26.565 87.91 26.4889 87.735C26.4129 87.56 26.3094 87.406 26.1768 87.274C26.0441 87.142 25.89 87.039 25.7144 86.9628C25.5388 86.8873 25.3496 86.8502 25.1487 86.8502C24.9478 86.8502 24.7585 86.8873 24.583 86.9628C24.4074 87.039 24.2533 87.142 24.1206 87.274C23.9879 87.406 23.8845 87.56 23.8084 87.735C23.7324 87.91 23.6953 88.099 23.6953 88.299C23.6953 88.499 23.7324 88.688 23.8084 88.863C23.8845 89.038 23.9879 89.192 24.1206 89.323C24.2533 89.456 24.4074 89.559 24.583 89.635C24.7585 89.711 24.9478 89.748 25.1487 89.748Z" fill="#8F9AA3"/>
<path fill-rule="evenodd" clip-rule="evenodd" d="M33.4106 90.992C33.1355 90.992 32.8761 90.941 32.6322 90.843C32.3864 90.743 32.1699 90.6 31.9787 90.415C31.7836 90.22 31.6315 90.001 31.5261 89.755C31.4208 89.511 31.3661 89.25 31.3602 88.972V85.6094H32.601V88.964C32.601 89.18 32.681 89.367 32.8429 89.528C33.0049 89.68 33.1961 89.755 33.4165 89.755C33.5237 89.755 33.6272 89.734 33.7247 89.689C33.8222 89.644 33.9081 89.586 33.9822 89.515C34.0564 89.441 34.113 89.355 34.1519 89.258C34.1909 89.161 34.2104 89.055 34.2104 88.942V85.6094H35.4512V88.935C35.4571 89.213 35.4064 89.478 35.301 89.726C35.1957 89.975 35.0513 90.193 34.8679 90.378C34.6845 90.563 34.468 90.71 34.2222 90.821C33.9745 90.93 33.7111 90.988 33.432 90.994H33.4106V90.992Z" fill="#8F9AA3"/>
<path fill-rule="evenodd" clip-rule="evenodd" d="M40.9663 89.602C40.9019 89.612 40.8395 89.62 40.7751 89.623C40.7107 89.629 40.6444 89.633 40.5761 89.639V90.994H39.3354V85.6387H40.5761C40.8844 85.6426 41.1731 85.6989 41.4423 85.8084C41.7115 85.9148 41.9476 86.059 42.1504 86.2395C42.3533 86.4207 42.5133 86.6304 42.6284 86.8695C42.7435 87.107 42.8021 87.364 42.8021 87.638C42.8021 87.924 42.7416 88.192 42.6187 88.439C42.4958 88.686 42.3241 88.898 42.1036 89.079L43.2937 90.994H41.8325L40.9663 89.602ZM40.5761 88.393C40.7088 88.386 40.8336 88.365 40.9546 88.322C41.0755 88.282 41.1789 88.225 41.2706 88.157C41.3604 88.089 41.4326 88.009 41.4833 87.92C41.534 87.83 41.5613 87.733 41.5613 87.63C41.5613 87.527 41.5359 87.432 41.4833 87.345C41.4306 87.257 41.3604 87.179 41.2706 87.109C41.1809 87.041 41.0755 86.9867 40.9546 86.9436C40.8336 86.9027 40.7088 86.8795 40.5761 86.8734V88.393Z" fill="#8F9AA3"/>
<path fill-rule="evenodd" clip-rule="evenodd" d="M51.3215 85.5963V86.8325H50.2856V90.992H49.043V86.8325H48.0148V85.5963H51.3215Z" fill="#8F9AA3"/>
<path fill-rule="evenodd" clip-rule="evenodd" d="M58.0754 90.992L57.8628 90.341H56.1655L55.9451 90.992H54.6302L56.4659 85.6171H57.6424L59.3845 90.992H58.0754ZM56.5928 89.104H57.4668L57.0415 87.801L56.5928 89.104Z" fill="#8F9AA3"/>
<path fill-rule="evenodd" clip-rule="evenodd" d="M67.2775 87.982V90.992H66.029V90.86C65.8925 90.908 65.7501 90.944 65.6057 90.967C65.4613 90.988 65.317 91 65.1765 91C64.8292 91 64.4879 90.934 64.1562 90.802C63.8226 90.669 63.5241 90.473 63.2607 90.209C62.9954 89.944 62.7983 89.649 62.6695 89.318C62.5388 88.99 62.4745 88.651 62.4745 88.303C62.4745 87.957 62.5388 87.617 62.6695 87.286C62.8003 86.9536 62.9973 86.6559 63.2607 86.3929C63.526 86.1292 63.8246 85.9325 64.1562 85.7999C64.4879 85.668 64.8292 85.6017 65.1765 85.6017C65.5238 85.6017 65.8652 85.668 66.1969 85.7999C66.5304 85.9325 66.8288 86.1292 67.0922 86.3929L66.2104 87.272C66.068 87.13 65.9061 87.025 65.7246 86.9536C65.5432 86.8834 65.3599 86.8464 65.1746 86.8464C64.9893 86.8464 64.8039 86.8811 64.6244 86.9536C64.443 87.023 64.281 87.13 64.1386 87.272C63.9961 87.414 63.889 87.576 63.8148 87.756C63.7407 87.938 63.7036 88.12 63.7036 88.305C63.7036 88.49 63.7407 88.674 63.8148 88.853C63.889 89.034 63.9961 89.195 64.1386 89.337C64.2654 89.464 64.4097 89.563 64.5678 89.635C64.7277 89.705 64.8916 89.748 65.0594 89.759C65.2291 89.771 65.397 89.755 65.5628 89.713C65.7286 89.668 65.8826 89.596 66.0251 89.493V89.222H64.9444V87.986H67.2775V87.982Z" fill="#8F9AA3"/>
<path fill-rule="evenodd" clip-rule="evenodd" d="M74.2169 90.992H71.0059V85.6094H72.2459V89.755H74.2169V90.992Z" fill="#8F9AA3"/>
<path fill-rule="evenodd" clip-rule="evenodd" d="M79.1052 90.992H77.8632V85.6094H79.1052V90.992Z" fill="#8F9AA3"/>
<path fill-rule="evenodd" clip-rule="evenodd" d="M86.0872 85.6171H87.3312V90.992H85.9842L84.2232 87.857V90.992H82.9802V85.631H84.3322L86.0872 88.76V85.6171Z" fill="#8F9AA3"/>
<path fill-rule="evenodd" clip-rule="evenodd" d="M94.5331 86.8541H92.3151V87.667H94.1141V88.905H92.3151V89.755H94.5331V90.992H91.0721V85.6248L94.5331 85.6171V86.8541Z" fill="#8F9AA3"/>
<path fill-rule="evenodd" clip-rule="evenodd" d="M102.235 85.6171H103.478V90.992H102.235V88.964H100.678V90.992H99.4362V85.6171H100.678V87.727H102.235V85.6171Z" fill="#8F9AA3"/>
<path fill-rule="evenodd" clip-rule="evenodd" d="M110.622 86.8541H108.404V87.667H110.202V88.905H108.404V89.755H110.622V90.992H107.161V85.6248L110.622 85.6171V86.8541Z" fill="#8F9AA3"/>
<path fill-rule="evenodd" clip-rule="evenodd" d="M116.032 89.602C115.967 89.612 115.905 89.62 115.841 89.623C115.776 89.629 115.71 89.633 115.642 89.639V90.994H114.401V85.6387H115.642C115.949 85.6426 116.239 85.6989 116.508 85.8084C116.777 85.9148 117.013 86.059 117.216 86.2395C117.419 86.4207 117.578 86.6304 117.694 86.8695C117.809 87.107 117.867 87.364 117.867 87.638C117.867 87.924 117.806 88.192 117.684 88.439C117.561 88.686 117.389 88.898 117.169 89.079L118.359 90.994H116.898L116.032 89.602ZM115.643 88.393C115.776 88.386 115.901 88.365 116.022 88.322C116.143 88.282 116.248 88.225 116.338 88.157C116.428 88.089 116.5 88.009 116.55 87.92C116.601 87.83 116.629 87.733 116.629 87.63C116.629 87.527 116.603 87.432 116.55 87.345C116.498 87.257 116.428 87.179 116.338 87.109C116.248 87.041 116.143 86.9867 116.022 86.9436C115.901 86.9027 115.776 86.8795 115.643 86.8734V88.393Z" fill="#8F9AA3"/>
<path fill-rule="evenodd" clip-rule="evenodd" d="M125.425 86.8541H123.207V87.667H125.006V88.905H123.207V89.755H125.425V90.992H121.964V85.6248L125.425 85.6171V86.8541Z" fill="#8F9AA3"/>
<path fill-rule="evenodd" clip-rule="evenodd" d="M9.37786 61.6584H13.5391V79.6674H9.37786V72.8708H4.15926V79.6674H6.10352e-05V61.6584H4.15926V68.725H9.37786V61.6584Z" fill="#8F9AA3"/>
<path fill-rule="evenodd" clip-rule="evenodd" d="M26.9533 65.8042H19.5205V68.5285H25.5506V72.6744H19.5205V75.5212H26.9533V79.6674H15.3592V61.6817L26.9533 61.6584V65.8042Z" fill="#8F9AA3"/>
<path fill-rule="evenodd" clip-rule="evenodd" d="M43.6917 61.5106L38.3755 70.2943L44.1599 79.6674H39.2613L35.9624 74.3176L32.7142 79.6674H27.8643L33.5004 70.3195L28.0867 61.5106H32.96L35.9389 66.3196L38.8184 61.5106H43.6917Z" fill="#8F9AA3"/>
<path fill-rule="evenodd" clip-rule="evenodd" d="M55.7538 79.6674L55.0398 77.4834H49.3531L48.6137 79.6674H44.2067L50.3597 61.6584H54.2985L60.1316 79.6674H55.7538ZM50.7811 73.3375H53.7094L52.2833 68.97L50.7811 73.3375Z" fill="#8F9AA3"/>
<path fill-rule="evenodd" clip-rule="evenodd" d="M74.5092 61.6584H78.6712V79.6674H74.5092V72.8708H69.2909V79.6674H65.1316V61.6584H69.2909V68.725H74.5092V61.6584Z" fill="#8F9AA3"/>
<path fill-rule="evenodd" clip-rule="evenodd" d="M88.5522 61.6331C89.7992 61.6331 90.9692 61.8704 92.0672 62.3448C93.1622 62.8193 94.1242 63.461 94.9432 64.2719C95.7642 65.0808 96.4082 66.0337 96.8842 67.1304C97.3602 68.2272 97.5982 69.3958 97.5982 70.6384C97.5982 71.881 97.3602 73.0516 96.8842 74.1464C96.4082 75.2431 95.7642 76.196 94.9432 77.005C94.1212 77.8143 93.1622 78.4574 92.0672 78.9302C90.9672 79.4045 89.7992 79.642 88.5522 79.642C87.3052 79.642 86.1342 79.4045 85.0362 78.9302C83.9422 78.4559 82.9862 77.8143 82.1732 77.005C81.3612 76.196 80.7212 75.2431 80.2452 74.1464C79.7692 73.0497 79.5312 71.881 79.5312 70.6384C79.5312 69.3958 79.7692 68.2253 80.2452 67.1304C80.7212 66.0356 81.3612 65.0808 82.1732 64.2719C82.9842 63.4629 83.9402 62.8193 85.0362 62.3448C86.1372 61.8704 87.3052 61.6331 88.5522 61.6331ZM88.5652 75.4959C89.2392 75.4959 89.8702 75.3695 90.4622 75.1148C91.0532 74.862 91.5692 74.514 92.0132 74.0725C92.4552 73.6311 92.8052 73.1158 93.0582 72.5266C93.3122 71.9374 93.4402 71.3074 93.4402 70.6364C93.4402 69.9656 93.3142 69.3355 93.0582 68.7463C92.8052 68.1572 92.4552 67.6418 92.0132 67.2004C91.5692 66.759 91.0532 66.411 90.4622 66.1582C89.8702 65.9054 89.2392 65.777 88.5652 65.777C87.8922 65.777 87.2602 65.9034 86.6692 66.1582C86.0782 66.411 85.5612 66.759 85.1182 67.2004C84.6752 67.6418 84.3262 68.1572 84.0722 68.7463C83.8182 69.3355 83.6902 69.9656 83.6902 70.6364C83.6902 71.3074 83.8172 71.9374 84.0722 72.5266C84.3262 73.1158 84.6752 73.6311 85.1182 74.0725C85.5612 74.514 86.0782 74.862 86.6692 75.1148C87.2602 75.3695 87.8922 75.4959 88.5652 75.4959Z" fill="#8F9AA3"/>
<path fill-rule="evenodd" clip-rule="evenodd" d="M105.721 79.6672C104.802 79.6672 103.932 79.4999 103.111 79.1629C102.289 78.8289 101.56 78.35 100.92 77.7285C100.265 77.0747 99.7591 76.3378 99.4071 75.5191C99.0531 74.7004 98.8671 73.8254 98.8521 72.8939V61.6329H103.011V72.8706C103.011 73.59 103.283 74.2201 103.823 74.7607C104.366 75.2682 105.005 75.521 105.743 75.521C106.104 75.521 106.449 75.4471 106.776 75.2994C107.104 75.1515 107.391 74.9552 107.639 74.7102C107.885 74.4651 108.074 74.1793 108.205 73.8506C108.335 73.5239 108.401 73.172 108.401 72.7947V61.6309H112.565V72.7695C112.581 73.7009 112.413 74.5857 112.059 75.4199C111.706 76.2541 111.223 76.9814 110.608 77.6035C109.994 78.2259 109.27 78.7202 108.443 79.0873C107.613 79.4551 106.732 79.6472 105.797 79.6649H105.721V79.6672Z" fill="#8F9AA3"/>
<path fill-rule="evenodd" clip-rule="evenodd" d="M120.417 80.0113C119.843 80.0113 119.272 79.9334 118.707 79.7777C118.14 79.6227 117.602 79.3813 117.095 79.0543C116.209 78.4829 115.518 77.7417 115.027 76.8338C114.535 75.9257 114.287 74.932 114.287 73.8528H118.447C118.447 74.3428 118.554 74.7239 118.767 74.9942C118.98 75.2645 119.168 75.4473 119.333 75.5465C119.627 75.7429 119.947 75.8499 120.292 75.8654C120.638 75.8809 120.973 75.8168 121.301 75.669C121.531 75.5718 121.714 75.4473 121.855 75.3015C121.994 75.1537 122.101 75.0117 122.175 74.8717C122.249 74.7317 122.294 74.5975 122.31 74.4673C122.325 74.337 122.335 74.23 122.335 74.1483C122.335 74.0667 122.327 73.9597 122.31 73.8294C122.294 73.6992 122.247 73.5591 122.175 73.4114C122.101 73.2635 121.994 73.1216 121.855 72.9816C121.714 72.8416 121.531 72.7152 121.301 72.6005C121.121 72.5188 120.928 72.4449 120.723 72.3788C120.519 72.3127 120.3 72.2388 120.072 72.1571C119.662 72.0268 119.235 71.879 118.792 71.7157C118.349 71.5524 117.906 71.3306 117.463 71.0526C116.89 70.6929 116.404 70.2437 116.012 69.7031C115.618 69.1624 115.335 68.583 115.164 67.9607C114.992 67.3384 114.933 66.6967 114.992 66.0356C115.049 65.3725 115.234 64.7385 115.546 64.1338C115.841 63.5777 116.211 63.0954 116.654 62.687C117.097 62.2787 117.588 61.9559 118.13 61.7187C118.673 61.4814 119.254 61.3375 119.879 61.2889C120.503 61.2403 121.133 61.2967 121.775 61.4601C122.399 61.6078 122.961 61.8412 123.464 62.1601C123.973 62.479 124.408 62.864 124.773 63.3132C125.142 63.7624 125.425 64.266 125.618 64.8222C125.815 65.3783 125.913 65.9598 125.913 66.5646H121.773C121.773 66.1892 121.654 65.9267 121.416 65.7789C121.178 65.6311 120.969 65.5339 120.788 65.4853C120.755 65.4853 120.676 65.4736 120.554 65.4483C120.431 65.423 120.291 65.423 120.136 65.4483C119.98 65.4736 119.82 65.53 119.656 65.6195C119.492 65.7089 119.361 65.8528 119.262 66.0492C119.131 66.3118 119.106 66.584 119.188 66.8718C119.27 67.1576 119.434 67.3832 119.68 67.5465C119.91 67.6768 120.163 67.7954 120.443 67.9024C120.722 68.0094 121.016 68.1105 121.328 68.2096C121.607 68.2913 121.89 68.3808 122.177 68.48C122.463 68.5771 122.75 68.6919 123.047 68.8241C124.122 69.3141 124.967 70.0337 125.579 70.9826C126.19 71.9315 126.498 72.9855 126.498 74.1483C126.498 75.2937 126.19 76.3399 125.579 77.2891C124.968 78.2376 124.122 78.9571 123.047 79.4476C122.624 79.6435 122.189 79.7877 121.746 79.8772C121.302 79.9643 120.86 80.0113 120.417 80.0113Z" fill="#8F9AA3"/>
<path fill-rule="evenodd" clip-rule="evenodd" d="M139.592 65.8042H132.158V68.5285H138.189V72.6744H132.158V75.5212H139.592V79.6674H127.998V61.6817L139.592 61.6584V65.8042Z" fill="#8F9AA3"/>
<path fill-rule="evenodd" clip-rule="evenodd" d="M91.9972 12.7778C92.0002 21.293 92.0002 29.8102 91.9972 38.3255C84.5972 42.588 77.1972 46.8466 69.7943 51.1033C62.3947 46.8446 54.9911 42.5861 47.5915 38.3255V12.7778C54.993 8.5191 62.3966 4.2625 69.7943 0L91.9972 12.7778ZM70.1002 6.9304L86.1272 16.1555V34.9478L69.7943 44.3478L53.4616 34.9478V16.1555C58.9065 13.0228 64.3514 9.8901 69.7943 6.7554L70.1002 6.9304ZM69.7943 8.1594L54.6848 16.8536V34.2497L69.7943 42.9438L84.9042 34.2497V16.8536L69.7943 8.1594ZM70.1002 3.5527L89.0632 14.4657V36.6396C82.6412 40.3362 76.2182 44.0328 69.7962 47.7275L50.5276 36.6376V14.4657C56.9517 10.771 63.374 7.0763 69.7943 3.3777L70.1002 3.5527ZM87.8402 15.1657L69.7943 4.7817L51.7507 15.1657V35.9376L69.7943 46.3215L87.8402 35.9376V15.1657ZM90.7732 13.4739L69.7943 1.402L48.8147 13.4739V37.6274L69.7943 49.7013L90.7732 37.6274V13.4739Z" fill="#8F9AA3"/>
<path fill-rule="evenodd" clip-rule="evenodd" d="M65.6175 21.5361H68.9886V24.8963H65.6175V21.5361ZM70.6062 26.207H73.9772V29.5672H70.6062V26.207ZM65.6175 26.207H68.9886V29.5672H65.6175V26.207ZM70.6062 21.5361H73.9772V24.8963H70.6062V21.5361Z" fill="#8F9AA3"/>
</svg>
