<svg width="48" height="48" viewBox="0 0 48 48" fill="none" xmlns="http://www.w3.org/2000/svg">
<g clip-path="url(#clip0_47_173)">
<path d="M24.0001 46C36.1507 46 46.0001 36.1506 46.0001 24C46.0001 11.8494 36.1507 2 24.0001 2C11.8495 2 2.00006 11.8494 2.00006 24C2.00006 36.1506 11.8495 46 24.0001 46Z" fill="#CEE0FA" stroke="#CEE0FA" stroke-width="4" stroke-linecap="round" stroke-linejoin="round"/>
<path d="M23.7221 10L14.4461 23.494C13.8861 24.306 13.6061 24.712 13.6261 25.05C13.6329 25.1952 13.6714 25.3372 13.7387 25.466C13.8061 25.5949 13.9007 25.7075 14.0161 25.796C14.2861 26 14.7761 26 15.7641 26H23.7221V36L32.9981 22.506C33.5581 21.694 33.8381 21.288 33.8181 20.95C33.8112 20.8048 33.7727 20.6628 33.7054 20.534C33.638 20.4051 33.5434 20.2925 33.4281 20.204C33.1581 20 32.6681 20 31.6801 20H23.7221V10Z" fill="#0B63E5" stroke="#0B63E5" stroke-width="2" stroke-linecap="round" stroke-linejoin="round"/>
</g>
<defs>
<clipPath id="clip0_47_173">
<rect width="48" height="48" fill="white"/>
</clipPath>
</defs>
</svg>
