<svg width="149" height="48" viewBox="0 0 149 48" fill="none" xmlns="http://www.w3.org/2000/svg">
<g clip-path="url(#clip0_47_633)">
<path d="M24 46C36.1506 46 46 36.1506 46 24C46 11.8494 36.1506 2 24 2C11.8494 2 2 11.8494 2 24C2 36.1506 11.8494 46 24 46Z" fill="#CEE0FA" stroke="#CEE0FA" stroke-width="4" stroke-linecap="round" stroke-linejoin="round"/>
<path d="M23.722 10L14.446 23.494C13.886 24.306 13.606 24.712 13.626 25.05C13.6329 25.1952 13.6713 25.3372 13.7387 25.466C13.806 25.5949 13.9007 25.7075 14.016 25.796C14.286 26 14.776 26 15.764 26H23.722V36L32.998 22.506C33.558 21.694 33.838 21.288 33.818 20.95C33.8111 20.8048 33.7727 20.6628 33.7053 20.534C33.638 20.4051 33.5433 20.2925 33.428 20.204C33.158 20 32.668 20 31.68 20H23.722V10Z" fill="#0B63E5" stroke="#0B63E5" stroke-width="2" stroke-linecap="round" stroke-linejoin="round"/>
</g>
<path d="M72.832 38.36C70.936 38.36 69.184 38.036 67.576 37.388C65.968 36.716 64.564 35.792 63.364 34.616C62.188 33.44 61.276 32.072 60.628 30.512C59.98 28.928 59.656 27.212 59.656 25.364C59.656 23.54 59.98 21.848 60.628 20.288C61.3 18.704 62.236 17.336 63.436 16.184C64.636 15.008 66.04 14.096 67.648 13.448C69.28 12.8 71.032 12.476 72.904 12.476C74.224 12.476 75.496 12.656 76.72 13.016C77.944 13.376 79.048 13.88 80.032 14.528C81.016 15.176 81.832 15.908 82.48 16.724L79.528 19.82C78.856 19.172 78.16 18.632 77.44 18.2C76.744 17.768 76.012 17.432 75.244 17.192C74.476 16.952 73.684 16.832 72.868 16.832C71.668 16.832 70.552 17.048 69.52 17.48C68.512 17.912 67.624 18.512 66.856 19.28C66.112 20.048 65.524 20.948 65.092 21.98C64.66 23.012 64.444 24.14 64.444 25.364C64.444 26.54 64.66 27.656 65.092 28.712C65.548 29.768 66.172 30.692 66.964 31.484C67.756 32.276 68.668 32.9 69.7 33.356C70.756 33.788 71.872 34.004 73.048 34.004C73.936 34.004 74.764 33.872 75.532 33.608C76.3 33.344 76.984 32.984 77.584 32.528C78.184 32.048 78.64 31.496 78.952 30.872C79.288 30.248 79.456 29.576 79.456 28.856V28.064L80.104 28.82H72.652V24.644H84.064C84.112 24.908 84.148 25.208 84.172 25.544C84.196 25.856 84.208 26.168 84.208 26.48C84.232 26.768 84.244 27.02 84.244 27.236C84.244 28.892 83.956 30.404 83.38 31.772C82.804 33.116 81.988 34.28 80.932 35.264C79.9 36.248 78.688 37.016 77.296 37.568C75.928 38.096 74.44 38.36 72.832 38.36ZM96.5014 38.36C94.6054 38.36 92.9134 37.94 91.4254 37.1C89.9374 36.236 88.7614 35.06 87.8974 33.572C87.0334 32.084 86.6014 30.392 86.6014 28.496C86.6014 26.6 87.0334 24.908 87.8974 23.42C88.7614 21.932 89.9374 20.768 91.4254 19.928C92.9134 19.064 94.6054 18.632 96.5014 18.632C98.3734 18.632 100.053 19.064 101.541 19.928C103.029 20.768 104.193 21.932 105.033 23.42C105.897 24.908 106.329 26.6 106.329 28.496C106.329 30.392 105.897 32.084 105.033 33.572C104.193 35.06 103.029 36.236 101.541 37.1C100.053 37.94 98.3734 38.36 96.5014 38.36ZM96.5014 34.436C97.5334 34.436 98.4454 34.172 99.2374 33.644C100.053 33.116 100.689 32.408 101.145 31.52C101.625 30.632 101.853 29.624 101.829 28.496C101.853 27.344 101.625 26.324 101.145 25.436C100.689 24.548 100.053 23.852 99.2374 23.348C98.4454 22.82 97.5334 22.556 96.5014 22.556C95.4694 22.556 94.5334 22.82 93.6934 23.348C92.8774 23.852 92.2414 24.56 91.7854 25.472C91.3294 26.36 91.1014 27.368 91.1014 28.496C91.1014 29.624 91.3294 30.632 91.7854 31.52C92.2414 32.408 92.8774 33.116 93.6934 33.644C94.5334 34.172 95.4694 34.436 96.5014 34.436ZM109.786 38V11.36H114.25V38H109.786ZM119.417 38V19.028H123.845V38H119.417ZM121.577 14.996C120.689 14.996 119.993 14.78 119.489 14.348C119.009 13.892 118.769 13.256 118.769 12.44C118.769 11.672 119.021 11.048 119.525 10.568C120.029 10.088 120.713 9.848 121.577 9.848C122.489 9.848 123.185 10.076 123.665 10.532C124.169 10.964 124.421 11.6 124.421 12.44C124.421 13.184 124.169 13.796 123.665 14.276C123.161 14.756 122.465 14.996 121.577 14.996ZM137.596 38.36C135.7 38.36 134.008 37.94 132.52 37.1C131.032 36.236 129.856 35.06 128.992 33.572C128.128 32.084 127.696 30.392 127.696 28.496C127.696 26.6 128.128 24.908 128.992 23.42C129.856 21.932 131.032 20.768 132.52 19.928C134.008 19.064 135.7 18.632 137.596 18.632C139.468 18.632 141.148 19.064 142.636 19.928C144.124 20.768 145.288 21.932 146.128 23.42C146.992 24.908 147.424 26.6 147.424 28.496C147.424 30.392 146.992 32.084 146.128 33.572C145.288 35.06 144.124 36.236 142.636 37.1C141.148 37.94 139.468 38.36 137.596 38.36ZM137.596 34.436C138.628 34.436 139.54 34.172 140.332 33.644C141.148 33.116 141.784 32.408 142.24 31.52C142.72 30.632 142.948 29.624 142.924 28.496C142.948 27.344 142.72 26.324 142.24 25.436C141.784 24.548 141.148 23.852 140.332 23.348C139.54 22.82 138.628 22.556 137.596 22.556C136.564 22.556 135.628 22.82 134.788 23.348C133.972 23.852 133.336 24.56 132.88 25.472C132.424 26.36 132.196 27.368 132.196 28.496C132.196 29.624 132.424 30.632 132.88 31.52C133.336 32.408 133.972 33.116 134.788 33.644C135.628 34.172 136.564 34.436 137.596 34.436Z" fill="#061C3D"/>
<defs>
<clipPath id="clip0_47_633">
<rect width="48" height="48" fill="white"/>
</clipPath>
</defs>
</svg>
