<svg width="123" height="89" viewBox="0 0 123 89" fill="none" xmlns="http://www.w3.org/2000/svg">
<path fill-rule="evenodd" clip-rule="evenodd" d="M70.538 53.166H67.538V34.5961L70.538 31.2577V53.166ZM44.5075 54.0057H44.9265V25.6376L50.1944 19.7743L51.6263 21.3678V54.0076H56.3019V25.3159C55.0246 23.8907 53.7453 22.4675 52.4642 21.0442V1.6384L63.002 9.2522V21.5548C61.722 22.8023 60.4433 24.0516 59.164 25.3009V54.0076H63.84V21.9083L70.539 15.3736V30.0009C69.26 31.4242 67.981 32.8475 66.702 34.2726C66.702 40.5697 66.698 46.867 66.702 53.1641V54.0057H71.377V30.3263L72.809 28.7329L78.077 34.5961V54.0057H78.915V34.2744C76.882 32.0077 74.844 29.7447 72.809 27.4798L71.377 29.0714V13.3874L63.84 20.7375V8.8239C59.7691 5.8801 55.6968 2.9401 51.6263 0V20.1128L50.1944 18.5213C48.1591 20.7861 46.122 23.0492 44.0886 25.3159V54.0076H44.5075V54.0057ZM52.4642 22.2991L55.4641 25.6376V53.166H52.4642V22.2991ZM63 22.7274V53.166H60V25.6525L63 22.7274Z" fill="#8F9AA3"/>
<path fill-rule="evenodd" clip-rule="evenodd" d="M4.66646 71.7621C4.48396 71.7901 4.30146 71.8106 4.11896 71.8256C3.93646 71.8387 3.74846 71.8537 3.55106 71.8687V75.7741H6.10352e-05V60.3403H3.55296C4.43556 60.3553 5.26226 60.5161 6.03326 60.8266C6.80416 61.1371 7.48006 61.5523 8.06106 62.0684C8.64206 62.5884 9.09826 63.1943 9.42786 63.8845C9.75736 64.5709 9.92126 65.3097 9.92126 66.097C9.92126 66.9236 9.74626 67.6942 9.39616 68.4049C9.04606 69.1156 8.55446 69.7272 7.92506 70.249L11.3309 75.7741H7.14676L4.66646 71.7621ZM3.55296 68.2777C3.93096 68.2628 4.29216 68.1973 4.63476 68.0776C4.97746 67.9579 5.27906 67.7989 5.53786 67.6026C5.79676 67.4062 5.99966 67.1761 6.14676 66.9162C6.29386 66.6562 6.36836 66.3775 6.36836 66.0821C6.36836 65.7865 6.29386 65.5116 6.14676 65.2592C5.99966 65.0067 5.79676 64.7803 5.53786 64.584C5.27906 64.3876 4.97746 64.2286 4.63476 64.1089C4.29216 63.9892 3.93096 63.9219 3.55296 63.9088V68.2777Z" fill="#8F9AA3"/>
<path fill-rule="evenodd" clip-rule="evenodd" d="M22.9987 63.8452H16.649V66.1887H21.7995V69.7571H16.649V72.2053H22.9987V75.7741H13.0961V60.2973L22.9987 60.2768V63.8452Z" fill="#8F9AA3"/>
<path fill-rule="evenodd" clip-rule="evenodd" d="M34.0986 75.7741L33.4897 73.8944H28.6334L28.0021 75.7741H24.2388L29.4937 60.2768H32.8566L37.8395 75.7741H34.0986ZM29.8512 70.3257H32.352L31.1323 66.5683L29.8512 70.3257Z" fill="#8F9AA3"/>
<path fill-rule="evenodd" clip-rule="evenodd" d="M48.5186 75.774H39.3329V60.2543H42.8858V72.2052H48.5186V75.774Z" fill="#8F9AA3"/>
<path fill-rule="evenodd" clip-rule="evenodd" d="M63.655 63.8452H57.3056V66.1887H62.456V69.7571H57.3056V72.2053H63.655V75.7741H53.7528V60.2973L63.655 60.2768V63.8452Z" fill="#8F9AA3"/>
<path fill-rule="evenodd" clip-rule="evenodd" d="M70.508 76.0694C70.018 76.0694 69.53 76.0022 69.046 75.8693C68.562 75.7364 68.104 75.5289 67.67 75.2462C66.914 74.7545 66.324 74.1166 65.905 73.3349C65.484 72.5531 65.274 71.6984 65.274 70.7689H68.826C68.826 71.1916 68.918 71.5189 69.1 71.7508C69.283 71.9827 69.443 72.1417 69.584 72.2259C69.836 72.3942 70.109 72.4858 70.404 72.5008C70.698 72.5158 70.985 72.4577 71.266 72.3325C71.461 72.2483 71.62 72.1417 71.739 72.0164C71.858 71.8892 71.949 71.7658 72.012 71.6461C72.076 71.5264 72.115 71.4104 72.128 71.2982C72.143 71.186 72.148 71.0944 72.148 71.0233C72.148 70.9522 72.141 70.8605 72.128 70.7483C72.113 70.6361 72.076 70.5164 72.012 70.3893C71.949 70.2621 71.858 70.1386 71.739 70.019C71.62 69.8992 71.461 69.7908 71.266 69.6917C71.111 69.6206 70.947 69.557 70.772 69.5009C70.597 69.4448 70.411 69.3812 70.215 69.3101C69.865 69.1979 69.5 69.0707 69.122 68.9304C68.744 68.7902 68.366 68.5994 67.987 68.36C67.497 68.0496 67.083 67.6624 66.746 67.1986C66.409 66.7348 66.169 66.2335 66.022 65.6987C65.875 65.1638 65.827 64.6121 65.875 64.0416C65.923 63.4712 66.082 62.9269 66.348 62.4051C66.599 61.9263 66.916 61.5111 67.294 61.1595C67.672 60.8079 68.093 60.5293 68.555 60.3253C69.016 60.1215 69.513 59.9981 70.048 59.9551C70.58 59.912 71.12 59.9625 71.666 60.1028C72.199 60.23 72.679 60.4301 73.109 60.705C73.543 60.98 73.916 61.311 74.226 61.6982C74.541 62.0853 74.783 62.5173 74.949 62.9961C75.116 63.4749 75.2 63.9742 75.2 64.4961H71.666C71.666 64.1725 71.564 63.948 71.361 63.8209C71.158 63.6937 70.979 63.6095 70.824 63.5684C70.796 63.5684 70.729 63.5572 70.625 63.5366C70.521 63.5161 70.402 63.5161 70.268 63.5366C70.135 63.5572 69.998 63.6077 69.858 63.6844C69.718 63.761 69.607 63.8845 69.521 64.0546C69.409 64.2791 69.387 64.5147 69.458 64.7616C69.528 65.0085 69.668 65.2011 69.878 65.3414C70.074 65.4536 70.292 65.5565 70.53 65.6482C70.769 65.7398 71.02 65.8277 71.286 65.9119C71.525 65.9829 71.767 66.0596 72.011 66.1438C72.256 66.2279 72.5 66.327 72.754 66.4392C73.672 66.8619 74.394 67.481 74.915 68.2965C75.437 69.1138 75.7 70.0208 75.7 71.0196C75.7 72.0052 75.437 72.9048 74.915 73.7221C74.394 74.5396 73.672 75.1583 72.754 75.5792C72.392 75.7475 72.022 75.8708 71.644 75.9498C71.266 76.0302 70.886 76.0694 70.508 76.0694Z" fill="#8F9AA3"/>
<path fill-rule="evenodd" clip-rule="evenodd" d="M86.505 60.2132V63.7816H83.543V75.7741H79.99V63.7816H77.046V60.2132H86.505Z" fill="#8F9AA3"/>
<path fill-rule="evenodd" clip-rule="evenodd" d="M97.29 75.7741L96.6811 73.8944H91.8251L91.1941 75.7741H87.4301L92.6851 60.2768H96.0481L101.029 75.7741H97.29ZM93.0451 70.3257H95.5451L94.3261 66.5683L93.0451 70.3257Z" fill="#8F9AA3"/>
<path fill-rule="evenodd" clip-rule="evenodd" d="M111.375 60.2132V63.7816H108.411V75.7741H104.859V63.7816H101.915V60.2132H111.375Z" fill="#8F9AA3"/>
<path fill-rule="evenodd" clip-rule="evenodd" d="M123 63.8452H116.652V66.1887H121.802V69.7571H116.652V72.2053H123V75.7741H113.1V60.2973L123 60.2768V63.8452Z" fill="#8F9AA3"/>
<path fill-rule="evenodd" clip-rule="evenodd" d="M2.39464 88.585L3.07434 86.919L1.07074 82.6527H2.56224L3.76894 85.2108L4.79674 82.6527H6.25854L3.85644 88.585H2.39464Z" fill="#8F9AA3"/>
<path fill-rule="evenodd" clip-rule="evenodd" d="M12.9938 82.694C13.3978 82.694 13.7777 82.7701 14.1333 82.9258C14.489 83.0809 14.8 83.2906 15.0662 83.5541C15.3325 83.8177 15.541 84.13 15.6956 84.4873C15.8502 84.8447 15.9265 85.2278 15.9265 85.6339C15.9265 86.04 15.8502 86.421 15.6956 86.78C15.541 87.138 15.3325 87.45 15.0662 87.714C14.8 87.977 14.489 88.188 14.1333 88.342C13.7777 88.497 13.3978 88.574 12.9938 88.574C12.5896 88.574 12.2098 88.497 11.8541 88.342C11.4985 88.187 11.1893 87.977 10.9249 87.714C10.6624 87.448 10.4539 87.138 10.2993 86.78C10.1447 86.423 10.0684 86.04 10.0684 85.6339C10.0684 85.2278 10.1447 84.8447 10.2993 84.4873C10.4539 84.13 10.6605 83.8177 10.9249 83.5541C11.1875 83.2906 11.4985 83.0787 11.8541 82.9258C12.2116 82.7701 12.5896 82.694 12.9938 82.694ZM12.9974 87.223C13.2153 87.223 13.4201 87.182 13.6119 87.1C13.8037 87.017 13.9714 86.904 14.1147 86.76C14.2581 86.616 14.3717 86.447 14.4536 86.255C14.5355 86.062 14.5765 85.8561 14.5765 85.6376C14.5765 85.419 14.5355 85.2131 14.4536 85.0204C14.3717 84.8277 14.2581 84.6593 14.1147 84.5154C13.9714 84.3714 13.8037 84.257 13.6119 84.175C13.4201 84.0923 13.2153 84.0517 12.9974 84.0517C12.7796 84.0517 12.5748 84.0923 12.383 84.175C12.1912 84.257 12.0236 84.3714 11.8802 84.5154C11.7368 84.6593 11.6232 84.8277 11.5413 85.0204C11.4594 85.2131 11.4184 85.419 11.4184 85.6376C11.4184 85.8561 11.4594 86.062 11.5413 86.255C11.6232 86.447 11.7368 86.616 11.8802 86.76C12.0236 86.904 12.1912 87.017 12.383 87.1C12.5748 87.182 12.7796 87.223 12.9974 87.223Z" fill="#8F9AA3"/>
<path fill-rule="evenodd" clip-rule="evenodd" d="M21.9726 88.585C21.6747 88.585 21.3916 88.531 21.1272 88.42C20.8609 88.31 20.6244 88.155 20.4159 87.951C20.2036 87.738 20.0397 87.497 19.9243 87.229C19.8107 86.961 19.7492 86.676 19.7455 86.371V82.6903H21.0937V86.361C21.0937 86.597 21.1812 86.803 21.3563 86.978C21.5313 87.145 21.7398 87.227 21.9782 87.227C22.0955 87.227 22.2072 87.203 22.3134 87.154C22.4195 87.106 22.5126 87.042 22.5927 86.961C22.6727 86.882 22.7341 86.788 22.777 86.681C22.8198 86.574 22.8404 86.459 22.8404 86.337V82.6903H24.1885V86.329C24.1941 86.634 24.14 86.922 24.0246 87.195C23.911 87.468 23.7528 87.706 23.5535 87.908C23.3542 88.112 23.1196 88.272 22.8515 88.392C22.5834 88.512 22.2966 88.576 21.9931 88.581L21.9726 88.585Z" fill="#8F9AA3"/>
<path fill-rule="evenodd" clip-rule="evenodd" d="M30.1825 87.062C30.1136 87.074 30.0447 87.082 29.9758 87.087C29.907 87.093 29.8344 87.098 29.7598 87.104V88.587H28.4117V82.7272H29.7598C30.095 82.7331 30.4097 82.7944 30.7021 82.9125C30.9944 83.0307 31.2514 83.1872 31.473 83.3836C31.6945 83.5822 31.8658 83.8118 31.9925 84.0739C32.1172 84.3337 32.1806 84.6143 32.1806 84.914C32.1806 85.2278 32.1135 85.5194 31.9813 85.7911C31.8491 86.06 31.6629 86.294 31.4227 86.49L32.715 88.588H31.1266L30.1825 87.062ZM29.758 85.7402C29.9014 85.735 30.0392 85.7106 30.1695 85.6634C30.2998 85.6191 30.4134 85.5593 30.5121 85.484C30.6108 85.4094 30.6872 85.323 30.743 85.2241C30.7989 85.1252 30.8268 85.0204 30.8268 84.9081C30.8268 84.7959 30.7989 84.6911 30.743 84.5958C30.6872 84.5006 30.6108 84.4142 30.5121 84.3396C30.4134 84.2651 30.2998 84.2045 30.1695 84.1602C30.0392 84.1152 29.9014 84.0886 29.758 84.0835V85.7402Z" fill="#8F9AA3"/>
<path fill-rule="evenodd" clip-rule="evenodd" d="M41.4314 82.6768V84.0323H40.3067V88.5848H38.9567V84.0323H37.8394V82.6768H41.4314Z" fill="#8F9AA3"/>
<path fill-rule="evenodd" clip-rule="evenodd" d="M48.7701 88.5848L48.5392 87.8718H46.6957L46.4555 88.5848H45.0273L47.0234 82.7012H48.3008L50.1927 88.5848H48.7701ZM47.1575 86.5168H48.1072L47.6435 85.0896L47.1575 86.5168Z" fill="#8F9AA3"/>
<path fill-rule="evenodd" clip-rule="evenodd" d="M58.7656 88.587H57.4082V88.443C57.2592 88.497 57.1065 88.535 56.9482 88.559C56.7919 88.583 56.6354 88.594 56.4809 88.594C56.1028 88.594 55.7341 88.521 55.371 88.377C55.0098 88.233 54.6839 88.016 54.3972 87.728C54.1105 87.44 53.8963 87.115 53.7548 86.754C53.6132 86.393 53.5425 86.023 53.5425 85.6435C53.5425 85.2633 53.6132 84.8912 53.7548 84.5287C53.8963 84.1654 54.1105 83.8384 54.3972 83.5504C54.6839 83.2625 55.0098 83.0454 55.371 82.9015C55.7323 82.7575 56.1028 82.6844 56.4809 82.6844C56.8589 82.6844 57.2276 82.7575 57.5907 82.9015C57.9519 83.0454 58.2778 83.2625 58.5645 83.5504L57.6074 84.5117C57.4529 84.3566 57.2778 84.2407 57.0804 84.1639C56.883 84.0872 56.6838 84.048 56.4827 84.048C56.2797 84.048 56.0805 84.0872 55.885 84.1639C55.6876 84.2407 55.5126 84.3581 55.358 84.5117C55.2035 84.6667 55.0861 84.8424 55.0061 85.041C54.926 85.2389 54.8869 85.439 54.8869 85.6413C54.8869 85.845 54.926 86.045 55.0061 86.241C55.0861 86.44 55.2035 86.616 55.358 86.771C55.4958 86.91 55.6522 87.017 55.8254 87.096C55.9985 87.173 56.1774 87.22 56.3598 87.233C56.5442 87.246 56.7248 87.229 56.9073 87.181C57.0879 87.132 57.2555 87.051 57.41 86.939V86.642H56.237V85.2876H58.7656V88.587Z" fill="#8F9AA3"/>
<path fill-rule="evenodd" clip-rule="evenodd" d="M66.305 88.585H62.816V82.694H64.166V87.231H66.305V88.585Z" fill="#8F9AA3"/>
<path fill-rule="evenodd" clip-rule="evenodd" d="M71.6161 88.585H70.2681V82.694H71.6161V88.585Z" fill="#8F9AA3"/>
<path fill-rule="evenodd" clip-rule="evenodd" d="M79.2021 82.7014H80.5501V88.585H79.09L77.1741 85.1547V88.585H75.826V82.7184H77.2931L79.2021 86.14V82.7014Z" fill="#8F9AA3"/>
<path fill-rule="evenodd" clip-rule="evenodd" d="M88.3771 84.0569H85.9651V84.9458H87.9221V86.301H85.9651V87.231H88.3771V88.585H84.6171V82.7088L88.3771 82.7014V84.0569Z" fill="#8F9AA3"/>
<path fill-rule="evenodd" clip-rule="evenodd" d="M96.7441 82.7014H98.0931V88.585H96.7441V86.365H95.0521V88.585H93.7041V82.7014H95.0521V85.0108H96.7441V82.7014Z" fill="#8F9AA3"/>
<path fill-rule="evenodd" clip-rule="evenodd" d="M105.854 84.0569H103.444V84.9458H105.4V86.301H103.444V87.231H105.854V88.585H102.096V82.7088L105.854 82.7014V84.0569Z" fill="#8F9AA3"/>
<path fill-rule="evenodd" clip-rule="evenodd" d="M111.733 87.062C111.663 87.074 111.595 87.082 111.524 87.087C111.455 87.093 111.383 87.098 111.308 87.104V88.587H109.96V82.7272H111.308C111.643 82.7331 111.958 82.7944 112.25 82.9125C112.543 83.0307 112.8 83.1872 113.021 83.3836C113.242 83.5822 113.414 83.8118 113.541 84.0739C113.665 84.3337 113.729 84.6143 113.729 84.914C113.729 85.2278 113.662 85.5194 113.53 85.7911C113.397 86.06 113.211 86.294 112.971 86.49L114.263 88.588H112.675L111.733 87.062ZM111.31 85.7402C111.453 85.735 111.591 85.7106 111.722 85.6634C111.852 85.6191 111.965 85.5593 112.064 85.484C112.163 85.4094 112.239 85.323 112.295 85.2241C112.351 85.1252 112.379 85.0204 112.379 84.9081C112.379 84.7959 112.351 84.6911 112.295 84.5958C112.239 84.5006 112.163 84.4142 112.064 84.3396C111.965 84.2651 111.852 84.2045 111.722 84.1602C111.591 84.1152 111.453 84.0886 111.31 84.0835V85.7402Z" fill="#8F9AA3"/>
<path fill-rule="evenodd" clip-rule="evenodd" d="M121.936 84.0567H119.525V84.9456H121.483V86.3008H119.525V87.2308H121.936V88.5848H118.177V82.7086L121.936 82.7012V84.0567Z" fill="#8F9AA3"/>
<path fill-rule="evenodd" clip-rule="evenodd" d="M19.3993 49.9548H17.2951V50.7309H19.0026V51.9148H17.2951V52.7265H19.3993V53.9085H16.1183V48.7802L19.3993 48.7728V49.9548Z" fill="#8F9AA3"/>
<path fill-rule="evenodd" clip-rule="evenodd" d="M21.9279 54.0057C21.7659 54.0057 21.6039 53.9833 21.4438 53.9384C21.2837 53.8935 21.131 53.8262 20.9876 53.7327C20.7362 53.5699 20.5426 53.3586 20.4028 53.0987C20.2632 52.8406 20.1943 52.5563 20.1943 52.2477H21.3712C21.3712 52.3879 21.401 52.4965 21.4624 52.5731C21.522 52.6498 21.576 52.7022 21.6225 52.7302C21.7064 52.7863 21.7976 52.8162 21.8944 52.8218C21.9912 52.8256 22.0881 52.8088 22.1793 52.7658C22.2445 52.7377 22.2966 52.7022 22.3357 52.661C22.3748 52.6199 22.4047 52.5787 22.427 52.5394C22.4474 52.5002 22.4605 52.4609 22.4661 52.4235C22.4698 52.3861 22.4735 52.3562 22.4735 52.3318C22.4735 52.3094 22.4717 52.2776 22.4661 52.2402C22.4623 52.2028 22.4493 52.1635 22.427 52.1205C22.4065 52.0793 22.3767 52.0382 22.3357 51.9989C22.2966 51.9597 22.2445 51.9223 22.1793 51.8905C22.129 51.868 22.0731 51.8456 22.0155 51.8269C21.9577 51.8082 21.8963 51.7876 21.8311 51.7633C21.7156 51.7259 21.5946 51.6847 21.468 51.638C21.3432 51.5913 21.2166 51.5276 21.0919 51.4491C20.9298 51.3462 20.792 51.2191 20.6803 51.0638C20.5686 50.9105 20.4885 50.744 20.4401 50.5664C20.3917 50.3887 20.3749 50.2053 20.3917 50.0165C20.4084 49.8276 20.4606 49.6462 20.5481 49.4741C20.6319 49.3151 20.7362 49.1786 20.861 49.0608C20.9857 48.9448 21.1254 48.8513 21.2781 48.784C21.4307 48.7167 21.5965 48.6755 21.7734 48.6624C21.9503 48.6493 22.129 48.6642 22.3096 48.7111C22.4866 48.7522 22.6448 48.8195 22.7882 48.9111C22.9316 49.0028 23.0545 49.1113 23.1588 49.2403C23.2631 49.3694 23.3431 49.5115 23.3971 49.6705C23.453 49.8294 23.4809 49.994 23.4809 50.168H22.3096C22.3096 50.0614 22.2761 49.9865 22.2091 49.9435C22.1421 49.9024 22.0825 49.8743 22.0322 49.8594C22.0229 49.8594 22.0005 49.8556 21.9652 49.8482C21.9298 49.8407 21.8907 49.8407 21.846 49.8482C21.8013 49.8556 21.7566 49.8706 21.71 49.8968C21.6635 49.923 21.6263 49.9641 21.5983 50.0183C21.5611 50.0931 21.5537 50.1717 21.5778 50.2522C21.6002 50.3344 21.6468 50.398 21.7175 50.4448C21.7827 50.4822 21.8553 50.5159 21.9335 50.5458C22.0117 50.5757 22.0955 50.6056 22.1849 50.6337C22.2631 50.6561 22.3432 50.6823 22.4251 50.7103C22.507 50.7384 22.5871 50.7702 22.6709 50.8076C22.9744 50.9478 23.2146 51.1536 23.3878 51.4229C23.561 51.6941 23.6485 51.9952 23.6485 52.3262C23.6485 52.6536 23.561 52.9509 23.3878 53.2221C23.2146 53.4933 22.9763 53.6971 22.6709 53.8374C22.5517 53.8935 22.4288 53.9347 22.3022 53.959C22.1793 53.9945 22.0527 54.0057 21.9279 54.0057Z" fill="#8F9AA3"/>
<path fill-rule="evenodd" clip-rule="evenodd" d="M27.4863 48.7522V49.9342H26.505V53.9085H25.3263V49.9342H24.3525V48.7522H27.4863Z" fill="#8F9AA3"/>
<path fill-rule="evenodd" clip-rule="evenodd" d="M29.4098 48.7522C29.7488 48.7708 30.069 48.8532 30.367 48.9972C30.6668 49.1412 30.9274 49.3301 31.1472 49.5638C31.3669 49.7976 31.5419 50.067 31.6705 50.3756C31.7989 50.6841 31.8622 51.0115 31.8622 51.363C31.8622 51.7091 31.7989 52.0307 31.6741 52.3318C31.5494 52.633 31.3762 52.8967 31.1547 53.1267C30.9349 53.3549 30.6742 53.5382 30.3781 53.6765C30.0802 53.815 29.7581 53.8917 29.4098 53.9103H28.233V48.7466H29.4098V48.7522ZM29.4098 52.719C29.5905 52.7003 29.7599 52.6516 29.9145 52.575C30.0709 52.4983 30.205 52.3991 30.3186 52.2813C30.4321 52.1616 30.5215 52.0233 30.5867 51.8643C30.6518 51.7053 30.6835 51.537 30.6835 51.3612C30.6835 51.1798 30.6518 51.0059 30.5867 50.8394C30.5215 50.6729 30.4303 50.5271 30.3148 50.398C30.1994 50.269 30.0634 50.1642 29.9107 50.0838C29.7581 50.0015 29.5905 49.9528 29.4098 49.9342V52.719Z" fill="#8F9AA3"/>
<path fill-rule="evenodd" clip-rule="evenodd" d="M91.8351 48.7578H93.011V53.9085H91.8351V50.6337L91.486 51.0676L90.571 50.3195L91.8351 48.7578Z" fill="#8F9AA3"/>
<path fill-rule="evenodd" clip-rule="evenodd" d="M95.672 52.474C95.439 52.4516 95.221 52.3861 95.016 52.2813C94.812 52.1766 94.635 52.042 94.484 51.8793C94.333 51.7165 94.214 51.5276 94.128 51.3125C94.043 51.0975 94 50.8693 94 50.6262C94 50.37 94.049 50.1287 94.147 49.9024C94.244 49.6761 94.376 49.4797 94.544 49.3113C94.711 49.1431 94.907 49.0103 95.132 48.913C95.357 48.8157 95.598 48.7652 95.852 48.7652C96.108 48.7652 96.348 48.8139 96.57 48.913C96.793 49.0103 96.987 49.1431 97.155 49.3113C97.322 49.4797 97.454 49.6761 97.551 49.9024C97.648 50.1287 97.698 50.37 97.698 50.6262C97.698 50.9011 97.64 51.1667 97.523 51.4248L96.27 53.9085H94.953L95.672 52.474ZM95.852 49.9472C95.76 49.9472 95.672 49.9641 95.592 49.9996C95.51 50.0352 95.439 50.0838 95.376 50.1474C95.312 50.2109 95.265 50.282 95.229 50.3644C95.193 50.4466 95.177 50.5327 95.177 50.6262C95.177 50.7197 95.193 50.8076 95.229 50.888C95.265 50.9703 95.312 51.0414 95.376 51.1012C95.439 51.161 95.51 51.2097 95.592 51.2452C95.674 51.2808 95.76 51.2976 95.852 51.2976C96.039 51.2976 96.197 51.2321 96.326 51.1012C96.456 50.9703 96.521 50.8113 96.521 50.6262C96.521 50.5327 96.504 50.4448 96.469 50.3644C96.433 50.282 96.387 50.2109 96.326 50.1474C96.266 50.0838 96.196 50.0352 96.113 49.9996C96.034 49.966 95.946 49.9472 95.852 49.9472Z" fill="#8F9AA3"/>
<path fill-rule="evenodd" clip-rule="evenodd" d="M100.262 52.474C100.029 52.4516 99.8111 52.3861 99.6061 52.2813C99.4021 52.1766 99.2251 52.042 99.0741 51.8793C98.9231 51.7165 98.8041 51.5276 98.7181 51.3125C98.6331 51.0975 98.5901 50.8693 98.5901 50.6262C98.5901 50.37 98.6391 50.1287 98.7371 49.9024C98.8341 49.6761 98.9661 49.4797 99.1341 49.3113C99.3021 49.1431 99.4971 49.0103 99.7221 48.913C99.9471 48.8157 100.188 48.7652 100.442 48.7652C100.698 48.7652 100.938 48.8139 101.16 48.913C101.383 49.0103 101.577 49.1431 101.745 49.3113C101.912 49.4797 102.044 49.6761 102.141 49.9024C102.238 50.1287 102.288 50.37 102.288 50.6262C102.288 50.9011 102.231 51.1667 102.113 51.4248L100.86 53.9085H99.5431L100.262 52.474ZM100.445 49.9472C100.352 49.9472 100.264 49.9641 100.184 49.9996C100.102 50.0352 100.031 50.0838 99.9681 50.1474C99.9051 50.2109 99.8561 50.282 99.8211 50.3644C99.7851 50.4466 99.7681 50.5327 99.7681 50.6262C99.7681 50.7197 99.7851 50.8076 99.8211 50.888C99.8561 50.9703 99.9051 51.0414 99.9681 51.1012C100.031 51.161 100.102 51.2097 100.184 51.2452C100.266 51.2808 100.352 51.2976 100.445 51.2976C100.631 51.2976 100.789 51.2321 100.917 51.1012C101.048 50.9703 101.113 50.8113 101.113 50.6262C101.113 50.5327 101.096 50.4448 101.061 50.3644C101.026 50.282 100.979 50.2109 100.917 50.1474C100.858 50.0838 100.787 50.0352 100.705 49.9996C100.624 49.966 100.537 49.9472 100.445 49.9472Z" fill="#8F9AA3"/>
<path fill-rule="evenodd" clip-rule="evenodd" d="M104.854 52.474C104.621 52.4516 104.403 52.3861 104.199 52.2813C103.994 52.1766 103.817 52.042 103.666 51.8793C103.515 51.7165 103.396 51.5276 103.31 51.3125C103.225 51.0975 103.182 50.8693 103.182 50.6262C103.182 50.37 103.23 50.1287 103.329 49.9024C103.426 49.6761 103.558 49.4797 103.726 49.3113C103.893 49.1431 104.089 49.0103 104.314 48.913C104.539 48.8157 104.78 48.7652 105.035 48.7652C105.289 48.7652 105.53 48.8139 105.751 48.913C105.975 49.0103 106.17 49.1431 106.336 49.3113C106.504 49.4797 106.636 49.6761 106.733 49.9024C106.83 50.1287 106.88 50.37 106.88 50.6262C106.88 50.9011 106.822 51.1667 106.705 51.4248L105.451 53.9085H104.135L104.854 52.474ZM105.035 49.9472C104.942 49.9472 104.854 49.9641 104.774 49.9996C104.692 50.0352 104.621 50.0838 104.558 50.1474C104.495 50.2109 104.446 50.282 104.411 50.3644C104.375 50.4466 104.358 50.5327 104.358 50.6262C104.358 50.7197 104.375 50.8076 104.411 50.888C104.446 50.9684 104.495 51.0414 104.558 51.1012C104.621 51.161 104.692 51.2097 104.774 51.2452C104.856 51.2808 104.942 51.2976 105.035 51.2976C105.221 51.2976 105.379 51.2321 105.507 51.1012C105.638 50.9703 105.703 50.8113 105.703 50.6262C105.703 50.5327 105.686 50.4448 105.651 50.3644C105.616 50.282 105.569 50.2109 105.507 50.1474C105.448 50.0838 105.377 50.0352 105.295 49.9996C105.215 49.966 105.127 49.9472 105.035 49.9472Z" fill="#8F9AA3"/>
</svg>
