<svg width="169" height="92" viewBox="0 0 169 92" fill="none" xmlns="http://www.w3.org/2000/svg">
<path fill-rule="evenodd" clip-rule="evenodd" d="M5.7886 71.9288C5.5635 71.9636 5.3361 71.9891 5.1111 72.0076C4.886 72.0239 4.6494 72.0424 4.4081 72.0587V76.8816H0V57.8219H4.4058C5.5009 57.8404 6.5263 58.0399 7.4822 58.4227C8.4381 58.8054 9.2779 59.3181 9.9994 59.9561C10.721 60.5988 11.2848 61.3457 11.6955 62.1994C12.1038 63.0461 12.3079 63.9601 12.3079 64.9321C12.3079 65.9529 12.0899 66.904 11.656 67.7833C11.2221 68.6601 10.612 69.4164 9.8301 70.0613L14.055 76.8839H8.865L5.7886 71.9288ZM4.4058 67.6278C4.8745 67.6116 5.3222 67.5281 5.7491 67.3796C6.176 67.2311 6.5495 67.0363 6.8697 66.7927C7.1922 66.5491 7.4428 66.266 7.626 65.9459C7.8093 65.6235 7.8998 65.2801 7.8998 64.916C7.8998 64.5517 7.8093 64.213 7.626 63.8998C7.4428 63.5867 7.1922 63.3083 6.8697 63.0647C6.5472 62.8211 6.1737 62.6263 5.7491 62.4778C5.3222 62.3293 4.8768 62.2481 4.4058 62.2296V67.6278Z" fill="#8F9AA3"/>
<path fill-rule="evenodd" clip-rule="evenodd" d="M30.3511 62.1507H22.4745V65.0458H28.864V69.4512H22.4745V72.4763H30.3511V76.8816H18.0687V57.7708L30.3511 57.7453V62.1507Z" fill="#8F9AA3"/>
<path fill-rule="evenodd" clip-rule="evenodd" d="M45.9419 76.8816L45.1856 74.5618H39.1626L38.3809 76.8816H33.7129L40.2322 57.743H44.4037L50.5844 76.8816H45.9419ZM40.673 70.1564H43.7749L42.2623 65.5145L40.673 70.1564Z" fill="#8F9AA3"/>
<path fill-rule="evenodd" clip-rule="evenodd" d="M65.6532 76.8817H54.257V57.7198H58.6651V72.4763H65.6532V76.8817Z" fill="#8F9AA3"/>
<path fill-rule="evenodd" clip-rule="evenodd" d="M86.2508 62.1507H78.3764V65.0458H84.7638V69.4512H78.3764V72.4763H86.2508V76.8816H73.9683V57.7708L86.2508 57.7453V62.1507Z" fill="#8F9AA3"/>
<path fill-rule="evenodd" clip-rule="evenodd" d="M96.5747 77.2482C95.9677 77.2482 95.3617 77.1647 94.7627 76.9999C94.1647 76.8352 93.5937 76.5777 93.0547 76.2297C92.1157 75.6219 91.3867 74.8355 90.8657 73.8705C90.3437 72.9054 90.0837 71.8499 90.0837 70.7015H94.4887C94.4887 71.2235 94.6027 71.6272 94.8277 71.9148C95.0527 72.2025 95.2547 72.3974 95.4267 72.5017C95.7397 72.7106 96.0787 72.8243 96.4427 72.8405C96.8067 72.8567 97.1637 72.7894 97.5127 72.6317C97.7557 72.5273 97.9507 72.3974 98.0997 72.2397C98.2477 72.0819 98.3587 71.9311 98.4387 71.7826C98.5167 71.6342 98.5637 71.4927 98.5817 71.3535C98.5977 71.2143 98.6077 71.1006 98.6077 71.0148C98.6077 70.9266 98.5977 70.8152 98.5817 70.6761C98.5657 70.5369 98.5167 70.3884 98.4387 70.233C98.3587 70.0776 98.2477 69.9244 98.0997 69.776C97.9507 69.6275 97.7557 69.4929 97.5127 69.3723C97.3217 69.2841 97.1177 69.2076 96.8997 69.138C96.6817 69.0684 96.4517 68.9896 96.2077 68.9037C95.7747 68.7645 95.3227 68.6091 94.8537 68.4351C94.3847 68.2611 93.9137 68.0268 93.4447 67.7322C92.8367 67.3494 92.3247 66.8715 91.9067 66.2985C91.4897 65.7256 91.1907 65.1085 91.0067 64.4473C90.8237 63.7862 90.7637 63.1042 90.8237 62.4012C90.8837 61.6983 91.0807 61.0232 91.4097 60.3806C91.7237 59.7891 92.1137 59.2764 92.5847 58.8426C93.0537 58.4088 93.5747 58.0655 94.1487 57.8126C94.7217 57.5597 95.3377 57.4089 95.9997 57.3556C96.6607 57.3045 97.3287 57.3648 98.0067 57.5388C98.6677 57.6943 99.2617 57.9425 99.7977 58.2812C100.336 58.6199 100.797 59.0282 101.185 59.5061C101.578 59.984 101.877 60.5175 102.081 61.109C102.29 61.7006 102.394 62.3177 102.394 62.9603H98.0087C98.0087 62.5613 97.8827 62.2829 97.6307 62.1252C97.3777 61.9697 97.1567 61.8653 96.9647 61.8119C96.9297 61.8119 96.8467 61.798 96.7167 61.7726C96.5867 61.747 96.4377 61.747 96.2737 61.7726C96.1087 61.798 95.9387 61.8584 95.7647 61.9558C95.5917 62.0509 95.4517 62.204 95.3477 62.4128C95.2087 62.6912 95.1827 62.9812 95.2687 63.2874C95.3567 63.5913 95.5287 63.8303 95.7907 64.0042C96.0347 64.1434 96.3037 64.2687 96.5987 64.3824C96.8927 64.496 97.2067 64.605 97.5377 64.7071C97.8317 64.793 98.1337 64.8904 98.4387 64.9948C98.7417 65.0992 99.0457 65.2198 99.3587 65.359C100.498 65.8809 101.394 66.6442 102.041 67.6533C102.689 68.6624 103.016 69.7829 103.016 71.0171C103.016 72.2327 102.691 73.3462 102.041 74.3553C101.394 75.3645 100.498 76.1277 99.3587 76.6497C98.9117 76.8584 98.4497 77.0092 97.9807 77.1066C97.5127 77.1994 97.0437 77.2482 96.5747 77.2482Z" fill="#8F9AA3"/>
<path fill-rule="evenodd" clip-rule="evenodd" d="M118.242 57.6664V62.0741H114.565V76.8816H110.159V62.0741H106.507V57.6664H118.242Z" fill="#8F9AA3"/>
<path fill-rule="evenodd" clip-rule="evenodd" d="M133.441 76.8816L132.685 74.5618H126.662L125.88 76.8816H121.212L127.732 57.743H131.903L138.083 76.8816H133.441ZM128.175 70.1564H131.277L129.764 65.5145L128.175 70.1564Z" fill="#8F9AA3"/>
<path fill-rule="evenodd" clip-rule="evenodd" d="M152.737 57.6664V62.0741H149.06V76.8816H144.652V62.0741H141.002V57.6664H152.737Z" fill="#8F9AA3"/>
<path fill-rule="evenodd" clip-rule="evenodd" d="M168.98 62.1507H161.106V65.0458H167.493V69.4512H161.106V72.4763H168.98V76.8816H156.698V57.7708L168.98 57.7453V62.1507Z" fill="#8F9AA3"/>
<path fill-rule="evenodd" clip-rule="evenodd" d="M21.7831 88.251C21.7831 88.611 21.7157 88.947 21.5812 89.262C21.4466 89.578 21.2633 89.856 21.0266 90.096C20.79 90.335 20.5163 90.525 20.203 90.664C19.8898 90.803 19.5535 90.874 19.1962 90.882V91.881H17.7531V85.6111H19.1962C19.5558 85.6158 19.8898 85.6901 20.203 85.8338C20.5163 85.9754 20.79 86.1679 21.0266 86.4069C21.2633 86.6459 21.4489 86.9245 21.5812 87.24C21.718 87.556 21.7831 87.892 21.7831 88.251ZM19.1962 89.437C19.3563 89.432 19.5048 89.395 19.644 89.33C19.7832 89.265 19.9037 89.176 20.0081 89.072C20.1102 88.968 20.1915 88.843 20.2518 88.699C20.3121 88.557 20.3423 88.404 20.3423 88.244C20.3423 88.084 20.3121 87.933 20.2518 87.789C20.1915 87.646 20.1102 87.523 20.0081 87.416C19.906 87.311 19.7855 87.224 19.644 87.158C19.5048 87.094 19.3539 87.056 19.1962 87.052V89.437Z" fill="#8F9AA3"/>
<path fill-rule="evenodd" clip-rule="evenodd" d="M28.0008 90.258C27.9266 90.269 27.8524 90.279 27.7782 90.283C27.7038 90.288 27.6273 90.295 27.5484 90.299V91.88H26.1053V85.6344H27.5484C27.908 85.639 28.2422 85.7063 28.5576 85.8316C28.8708 85.9568 29.1446 86.1241 29.3813 86.3347C29.618 86.5462 29.8035 86.7896 29.9357 87.071C30.0703 87.348 30.1376 87.648 30.1376 87.966C30.1376 88.3 30.0657 88.613 29.9242 88.9C29.7826 89.188 29.5831 89.437 29.3256 89.648L30.7106 91.881H29.0101L28.0008 90.258ZM27.5484 88.847C27.7015 88.843 27.8477 88.815 27.9892 88.766C28.1284 88.717 28.2514 88.654 28.3558 88.574C28.4602 88.495 28.5437 88.402 28.6041 88.295C28.6643 88.191 28.6945 88.078 28.6945 87.959C28.6945 87.839 28.6643 87.729 28.6041 87.624C28.5437 87.523 28.4625 87.433 28.3558 87.351C28.2514 87.272 28.1284 87.207 27.9892 87.158C27.8501 87.109 27.7038 87.082 27.5484 87.078V88.847Z" fill="#8F9AA3"/>
<path fill-rule="evenodd" clip-rule="evenodd" d="M37.5108 85.6019C37.9446 85.6019 38.3483 85.6854 38.7311 85.8501C39.1116 86.0148 39.4434 86.2401 39.7288 86.5204C40.0142 86.8033 40.2369 87.135 40.4016 87.516C40.5663 87.896 40.6498 88.305 40.6498 88.739C40.6498 89.172 40.5663 89.578 40.4016 89.961C40.2369 90.341 40.0119 90.673 39.7288 90.956C39.4434 91.236 39.1116 91.462 38.7311 91.627C38.3507 91.791 37.9446 91.874 37.5108 91.874C37.077 91.874 36.6732 91.791 36.2904 91.627C35.91 91.462 35.5782 91.236 35.2974 90.956C35.0167 90.673 34.794 90.341 34.6292 89.961C34.4646 89.58 34.381 89.172 34.381 88.739C34.381 88.305 34.4646 87.899 34.6292 87.516C34.794 87.133 35.0167 86.8033 35.2974 86.5204C35.5805 86.2401 35.91 86.0148 36.2904 85.8501C36.6732 85.6854 37.0793 85.6019 37.5108 85.6019ZM37.5154 90.429C37.7498 90.429 37.9678 90.385 38.172 90.298C38.3762 90.209 38.5572 90.089 38.7103 89.933C38.8634 89.78 38.984 89.599 39.0722 89.395C39.1603 89.191 39.2045 88.97 39.2045 88.736C39.2045 88.501 39.1603 88.284 39.0722 88.078C38.984 87.873 38.8634 87.692 38.7103 87.539C38.5572 87.386 38.3762 87.265 38.172 87.177C37.9678 87.089 37.7474 87.045 37.5131 87.045C37.2788 87.045 37.0607 87.089 36.8565 87.177C36.6523 87.265 36.4714 87.386 36.3183 87.539C36.1652 87.692 36.0445 87.873 35.954 88.078C35.8659 88.281 35.8218 88.501 35.8218 88.736C35.8218 88.97 35.8659 89.188 35.954 89.395C36.0422 89.599 36.1628 89.78 36.3183 89.933C36.4714 90.086 36.6523 90.206 36.8565 90.298C37.063 90.385 37.2811 90.429 37.5154 90.429Z" fill="#8F9AA3"/>
<path fill-rule="evenodd" clip-rule="evenodd" d="M48.5845 88.251C48.5845 88.611 48.5173 88.947 48.3827 89.262C48.2481 89.578 48.0648 89.856 47.8281 90.096C47.5915 90.335 47.3178 90.525 47.0045 90.664C46.6913 90.803 46.3549 90.874 45.9953 90.882V91.881H44.5522V85.6111H45.9953C46.3549 85.6158 46.689 85.6901 47.0022 85.8338C47.3154 85.9754 47.5892 86.1679 47.8258 86.4069C48.0625 86.6459 48.2481 86.9245 48.3803 87.24C48.5173 87.556 48.5845 87.892 48.5845 88.251ZM45.9976 89.437C46.1577 89.432 46.3062 89.395 46.4454 89.33C46.5846 89.265 46.7052 89.176 46.8073 89.072C46.9094 88.968 46.9906 88.843 47.0509 88.699C47.1113 88.557 47.1414 88.404 47.1414 88.244C47.1414 88.084 47.1113 87.933 47.0509 87.789C46.9906 87.646 46.9094 87.523 46.8073 87.416C46.7052 87.311 46.5846 87.224 46.4454 87.158C46.3062 87.094 46.1554 87.056 45.9976 87.052V89.437Z" fill="#8F9AA3"/>
<path fill-rule="evenodd" clip-rule="evenodd" d="M56.8346 87.054H54.2547V88.003H56.3474V89.445H54.2547V90.437H56.8346V91.881H52.8116V85.6204L56.8346 85.6111V87.054Z" fill="#8F9AA3"/>
<path fill-rule="evenodd" clip-rule="evenodd" d="M62.941 90.258C62.8668 90.269 62.7926 90.279 62.7183 90.283C62.6441 90.288 62.5675 90.295 62.4887 90.299V91.88H61.0455V85.6344H62.4887C62.8483 85.639 63.1823 85.7063 63.4956 85.8316C63.8088 85.9568 64.0825 86.1241 64.3192 86.3347C64.5558 86.5462 64.7414 86.7896 64.8737 87.071C65.0082 87.348 65.0755 87.648 65.0755 87.966C65.0755 88.3 65.0036 88.613 64.8621 88.9C64.7206 89.188 64.521 89.437 64.2635 89.648L65.6486 91.881H63.9479L62.941 90.258ZM62.4887 88.847C62.6418 88.843 62.7879 88.815 62.9295 88.766C63.0686 88.717 63.1916 88.654 63.296 88.574C63.4004 88.495 63.4839 88.402 63.5443 88.295C63.6046 88.191 63.6347 88.078 63.6347 87.959C63.6347 87.839 63.6046 87.729 63.5443 87.624C63.4839 87.523 63.4027 87.433 63.296 87.351C63.1916 87.272 63.0686 87.207 62.9295 87.158C62.7902 87.109 62.6441 87.082 62.4887 87.078V88.847Z" fill="#8F9AA3"/>
<path fill-rule="evenodd" clip-rule="evenodd" d="M73.3442 85.5856V87.029H72.14V91.881H70.6946V87.029H69.4998V85.5856H73.3442Z" fill="#8F9AA3"/>
<path fill-rule="evenodd" clip-rule="evenodd" d="M78.3996 91.881L79.1258 90.105L76.9821 85.5602H78.5783L79.8682 88.284L80.9703 85.5602H82.534L79.9634 91.881H78.3996Z" fill="#8F9AA3"/>
<path fill-rule="evenodd" clip-rule="evenodd" d="M90.1698 92C89.9698 92 89.7728 91.972 89.5758 91.919C89.3778 91.866 89.1928 91.78 89.0158 91.666C88.7078 91.466 88.4688 91.209 88.2998 90.893C88.1278 90.578 88.0448 90.232 88.0448 89.856H89.4878C89.4878 90.028 89.5248 90.16 89.5988 90.253C89.6728 90.346 89.7378 90.411 89.7958 90.445C89.8978 90.513 90.0088 90.55 90.1298 90.557C90.2508 90.562 90.3658 90.541 90.4798 90.49C90.5588 90.455 90.6238 90.414 90.6728 90.362C90.7218 90.311 90.7588 90.26 90.7838 90.213C90.8088 90.165 90.8258 90.119 90.8308 90.072C90.8348 90.026 90.8398 89.989 90.8398 89.96C90.8398 89.933 90.8378 89.896 90.8308 89.85C90.8258 89.803 90.8088 89.754 90.7838 89.703C90.7588 89.653 90.7218 89.601 90.6728 89.555C90.6238 89.507 90.5608 89.462 90.4798 89.422C90.4178 89.395 90.3508 89.369 90.2778 89.346C90.2068 89.323 90.1328 89.298 90.0508 89.269C89.9088 89.223 89.7608 89.172 89.6078 89.116C89.4548 89.059 89.2998 88.982 89.1458 88.887C88.9468 88.762 88.7798 88.604 88.6428 88.415C88.5058 88.228 88.4078 88.026 88.3478 87.81C88.2878 87.594 88.2698 87.37 88.2878 87.14C88.3078 86.9099 88.3708 86.6872 88.4808 86.4791C88.5828 86.2865 88.7098 86.1171 88.8648 85.9753C89.0188 85.8338 89.1898 85.7201 89.3778 85.639C89.5658 85.5555 89.7678 85.5067 89.9838 85.4905C90.1998 85.4742 90.4198 85.4928 90.6428 85.5509C90.8588 85.6018 91.0528 85.6831 91.2288 85.7944C91.4058 85.9058 91.5568 86.0406 91.6848 86.1954C91.8118 86.351 91.9118 86.5273 91.9768 86.7199C92.0468 86.9125 92.0788 87.117 92.0788 87.325H90.6428C90.6428 87.195 90.6008 87.102 90.5198 87.052C90.4358 87.001 90.3648 86.9658 90.3018 86.9494C90.2898 86.9494 90.2618 86.9451 90.2208 86.9357C90.1778 86.9262 90.1298 86.9262 90.0738 86.9357C90.0208 86.9451 89.9648 86.964 89.9078 86.9959C89.8488 87.026 89.8048 87.078 89.7708 87.145C89.7238 87.235 89.7168 87.33 89.7448 87.43C89.7728 87.53 89.8308 87.609 89.9158 87.664C89.9958 87.71 90.0838 87.75 90.1808 87.787C90.2778 87.824 90.3808 87.859 90.4898 87.893C90.5868 87.922 90.6838 87.955 90.7838 87.986C90.8838 88.022 90.9838 88.061 91.0858 88.108C91.4598 88.279 91.7518 88.53 91.9658 88.859C92.1758 89.188 92.2828 89.557 92.2828 89.96C92.2828 90.359 92.1758 90.724 91.9658 91.053C91.7538 91.383 91.4598 91.634 91.0858 91.805C90.9398 91.873 90.7888 91.923 90.6338 91.954C90.4758 91.984 90.3218 92 90.1698 92Z" fill="#8F9AA3"/>
<path fill-rule="evenodd" clip-rule="evenodd" d="M99.0638 85.6019C99.4978 85.6019 99.9018 85.6854 100.285 85.8501C100.665 86.0148 100.997 86.2401 101.283 86.5204C101.568 86.8033 101.791 87.135 101.955 87.516C102.12 87.896 102.204 88.305 102.204 88.739C102.204 89.172 102.12 89.578 101.955 89.961C101.791 90.341 101.566 90.673 101.283 90.956C100.997 91.236 100.665 91.462 100.285 91.627C99.9038 91.791 99.4978 91.874 99.0638 91.874C98.6308 91.874 98.2268 91.791 97.8448 91.627C97.4628 91.462 97.1318 91.236 96.8508 90.956C96.5698 90.673 96.3478 90.341 96.1828 89.961C96.0188 89.58 95.9348 89.172 95.9348 88.739C95.9348 88.305 96.0188 87.899 96.1828 87.516C96.3478 87.133 96.5698 86.8033 96.8508 86.5204C97.1338 86.2401 97.4628 86.0148 97.8448 85.8501C98.2248 85.6854 98.6308 85.6019 99.0638 85.6019ZM99.0698 90.429C99.3028 90.429 99.5208 90.385 99.7278 90.298C99.9328 90.209 100.114 90.089 100.266 89.933C100.42 89.78 100.54 89.599 100.628 89.395C100.716 89.191 100.76 88.97 100.76 88.736C100.76 88.501 100.716 88.284 100.628 88.078C100.54 87.873 100.42 87.692 100.266 87.539C100.114 87.386 99.9328 87.265 99.7278 87.177C99.5238 87.089 99.3028 87.045 99.0698 87.045C98.8348 87.045 98.6168 87.089 98.4098 87.177C98.2058 87.265 98.0258 87.386 97.8718 87.539C97.7188 87.692 97.5978 87.873 97.5098 88.078C97.4218 88.281 97.3778 88.501 97.3778 88.736C97.3778 88.97 97.4218 89.188 97.5098 89.395C97.5978 89.599 97.7188 89.78 97.8718 89.933C98.0258 90.086 98.2058 90.206 98.4098 90.298C98.6168 90.385 98.8348 90.429 99.0698 90.429Z" fill="#8F9AA3"/>
<path fill-rule="evenodd" clip-rule="evenodd" d="M109.839 91.881H106.106V85.6019H107.549V90.437H109.839V91.881Z" fill="#8F9AA3"/>
<path fill-rule="evenodd" clip-rule="evenodd" d="M116.277 91.881C115.959 91.881 115.656 91.824 115.373 91.708C115.087 91.592 114.834 91.425 114.611 91.209C114.384 90.982 114.208 90.724 114.087 90.441C113.964 90.156 113.901 89.852 113.894 89.527V85.6065H115.337V89.518C115.337 89.768 115.431 89.989 115.618 90.176C115.806 90.353 116.029 90.441 116.284 90.441C116.409 90.441 116.53 90.415 116.644 90.365C116.757 90.314 116.857 90.244 116.943 90.16C117.029 90.075 117.094 89.975 117.14 89.861C117.187 89.747 117.207 89.624 117.207 89.495V85.6019H118.651V89.481C118.655 89.806 118.597 90.112 118.476 90.404C118.354 90.694 118.187 90.947 117.973 91.165C117.76 91.381 117.509 91.555 117.221 91.682C116.934 91.81 116.627 91.877 116.303 91.884H116.277V91.881Z" fill="#8F9AA3"/>
<path fill-rule="evenodd" clip-rule="evenodd" d="M126.578 85.5856V87.029H125.374V91.881H123.931V87.029H122.734V85.5856H126.578Z" fill="#8F9AA3"/>
<path fill-rule="evenodd" clip-rule="evenodd" d="M132.104 91.881H130.659V85.6019H132.104V91.881Z" fill="#8F9AA3"/>
<path fill-rule="evenodd" clip-rule="evenodd" d="M139.127 85.6021C139.561 85.6021 139.965 85.6856 140.348 85.8503C140.728 86.015 141.06 86.2403 141.346 86.5206C141.631 86.8035 141.853 87.1352 142.018 87.5162C142.183 87.8962 142.266 88.3052 142.266 88.7392C142.266 89.1722 142.183 89.5782 142.018 89.9612C141.853 90.3412 141.628 90.6732 141.346 90.9562C141.06 91.2362 140.728 91.4622 140.348 91.6272C139.967 91.7912 139.561 91.8742 139.127 91.8742C138.694 91.8742 138.29 91.7912 137.907 91.6272C137.526 91.4622 137.195 91.2362 136.914 90.9562C136.631 90.6732 136.411 90.3412 136.246 89.9612C136.081 89.5802 135.998 89.1722 135.998 88.7392C135.998 88.3052 136.081 87.8992 136.246 87.5162C136.411 87.1332 136.633 86.8035 136.914 86.5206C137.197 86.2403 137.529 86.015 137.907 85.8503C138.29 85.6856 138.696 85.6021 139.127 85.6021ZM139.133 90.4292C139.366 90.4292 139.584 90.3851 139.789 90.2981C139.993 90.2091 140.174 90.0892 140.327 89.9332C140.48 89.7802 140.601 89.5991 140.689 89.3951C140.777 89.1911 140.821 88.9702 140.821 88.7362C140.821 88.5012 140.777 88.2842 140.689 88.0782C140.601 87.8732 140.48 87.6922 140.327 87.5392C140.174 87.3862 139.993 87.2652 139.789 87.1772C139.584 87.0892 139.364 87.0452 139.133 87.0452C138.898 87.0452 138.68 87.0892 138.473 87.1772C138.269 87.2652 138.088 87.3862 137.935 87.5392C137.782 87.6922 137.662 87.8732 137.571 88.0782C137.482 88.2812 137.438 88.5012 137.438 88.7362C137.438 88.9702 137.482 89.1881 137.571 89.3951C137.659 89.5991 137.78 89.7802 137.935 89.9332C138.088 90.0862 138.269 90.2061 138.473 90.2981C138.68 90.3851 138.898 90.4292 139.133 90.4292Z" fill="#8F9AA3"/>
<path fill-rule="evenodd" clip-rule="evenodd" d="M149.783 85.6111H151.227V91.881H149.663L147.612 88.225V91.881H146.169V85.6274H147.742L149.783 89.274V85.6111Z" fill="#8F9AA3"/>
<path fill-rule="evenodd" clip-rule="evenodd" d="M28.3581 43.7405H26.0356V44.5919H27.9195V45.8933H26.0356V46.7841H28.3581V48.0832H24.7365V42.4484L28.3581 42.4391V43.7405Z" fill="#8F9AA3"/>
<path fill-rule="evenodd" clip-rule="evenodd" d="M34.7384 48.1923C34.5598 48.1923 34.3811 48.1691 34.2048 48.1203C34.0284 48.0716 33.8591 47.995 33.7013 47.893C33.4253 47.7144 33.2095 47.4824 33.0564 47.197C32.9032 46.9117 32.8267 46.6008 32.8267 46.2622H34.1259C34.1259 46.4153 34.1584 46.5359 34.2257 46.6194C34.2929 46.7029 34.351 46.7609 34.402 46.7934C34.4948 46.856 34.5946 46.8885 34.7012 46.8932C34.808 46.8978 34.9147 46.8769 35.0168 46.8305C35.0887 46.8003 35.1467 46.7609 35.1909 46.7145C35.2349 46.6681 35.2674 46.6241 35.2906 46.5799C35.3138 46.5359 35.3277 46.4941 35.3323 46.4524C35.337 46.4106 35.3393 46.3781 35.3393 46.3526C35.3393 46.3271 35.337 46.2947 35.3323 46.2529C35.3277 46.2111 35.3138 46.1694 35.2906 46.123C35.2674 46.0765 35.2349 46.0325 35.1909 45.9884C35.1467 45.9444 35.0887 45.9049 35.0168 45.8701C34.9611 45.8445 34.9008 45.8213 34.8358 45.8005C34.7709 45.7796 34.7036 45.7564 34.6317 45.7309C34.5041 45.6892 34.3695 45.6428 34.2327 45.5917C34.0934 45.5407 33.9565 45.471 33.8174 45.3852C33.6387 45.2716 33.4855 45.1324 33.3626 44.9631C33.2397 44.7937 33.1515 44.6128 33.0981 44.4179C33.0447 44.223 33.0262 44.0211 33.0447 43.8147C33.0634 43.6083 33.1213 43.4088 33.2188 43.2185C33.3116 43.0446 33.4276 42.8938 33.5644 42.7638C33.7037 42.6362 33.8568 42.5342 34.0262 42.4599C34.1955 42.3857 34.3765 42.3416 34.5713 42.3254C34.7663 42.3092 34.9634 42.3277 35.163 42.3787C35.3579 42.4252 35.5342 42.497 35.6919 42.5968C35.852 42.6966 35.9866 42.8172 36.1003 42.9587C36.2163 43.1002 36.3045 43.258 36.3648 43.4319C36.4274 43.6059 36.4576 43.7892 36.4576 43.9771H35.1653C35.1653 43.8588 35.1282 43.7776 35.0539 43.7312C34.9797 43.6848 34.9147 43.6547 34.859 43.6384C34.8498 43.6384 34.8243 43.6338 34.7871 43.6268C34.7477 43.6199 34.7059 43.6199 34.6572 43.6268C34.6085 43.6338 34.5574 43.6524 34.5064 43.6801C34.4554 43.708 34.4136 43.7521 34.3835 43.8147C34.3416 43.896 34.3348 43.9818 34.3603 44.0722C34.3858 44.1627 34.4368 44.2323 34.5134 44.2833C34.5853 44.3251 34.6642 44.3622 34.7523 44.3946C34.8405 44.4271 34.931 44.4596 35.0284 44.4898C35.1165 44.5153 35.2047 44.5431 35.2929 44.5733C35.3834 44.6035 35.4716 44.6406 35.5643 44.68C35.9007 44.8332 36.1653 45.0605 36.3555 45.3574C36.5457 45.6544 36.6432 45.9861 36.6432 46.3503C36.6432 46.7099 36.548 47.0369 36.3555 47.3339C36.1653 47.6308 35.9007 47.8559 35.5643 48.0113C35.4321 48.0716 35.2975 48.118 35.1584 48.1458C35.0145 48.1783 34.8753 48.1923 34.7384 48.1923Z" fill="#8F9AA3"/>
<path fill-rule="evenodd" clip-rule="evenodd" d="M44.4616 42.4159V43.7173H43.3782V48.0833H42.0789V43.7173H41.0024V42.4159H44.4616Z" fill="#8F9AA3"/>
<path fill-rule="evenodd" clip-rule="evenodd" d="M50.1738 42.4159C50.5472 42.4368 50.8999 42.5273 51.2317 42.685C51.5634 42.845 51.8488 43.0516 52.0925 43.3067C52.336 43.5619 52.5286 43.8612 52.6701 44.1975C52.8117 44.5362 52.8812 44.8981 52.8812 45.2809C52.8812 45.6614 52.8116 46.0163 52.6747 46.3457C52.5356 46.6774 52.3453 46.9674 52.1017 47.218C51.8581 47.4685 51.5728 47.6703 51.2432 47.8211C50.9161 47.9719 50.5589 48.0577 50.1738 48.0786H48.8745V42.4043H50.1738V42.4159ZM50.1738 46.7772C50.3733 46.7563 50.5589 46.7053 50.7305 46.6194C50.9023 46.536 51.0507 46.4268 51.176 46.297C51.3013 46.1671 51.401 46.014 51.473 45.8399C51.5449 45.666 51.5796 45.4804 51.5796 45.2855C51.5796 45.0861 51.5449 44.8958 51.473 44.7126C51.401 44.5316 51.3013 44.3692 51.1737 44.2277C51.0461 44.0862 50.8976 43.9702 50.7282 43.8821C50.5589 43.7915 50.3756 43.7382 50.1738 43.7173V46.7772Z" fill="#8F9AA3"/>
<path fill-rule="evenodd" clip-rule="evenodd" d="M115.897 46.7841V48.0833H112.122V46.682C112.496 46.457 112.836 46.2273 113.141 45.9954C113.447 45.7657 113.706 45.5407 113.92 45.3296C114.136 45.1161 114.303 44.9236 114.419 44.7473C114.537 44.5733 114.595 44.4318 114.595 44.3251C114.595 44.1604 114.539 44.0212 114.426 43.9075C114.312 43.7938 114.175 43.7382 114.011 43.7382C113.846 43.7382 113.709 43.7961 113.595 43.9098C113.481 44.0235 113.426 44.1627 113.426 44.3297H112.12C112.12 44.0676 112.171 43.824 112.271 43.5943C112.37 43.367 112.507 43.1675 112.679 42.9935C112.85 42.8218 113.05 42.685 113.279 42.5852C113.507 42.4854 113.753 42.4344 114.015 42.4344C114.277 42.4344 114.521 42.4854 114.749 42.5852C114.975 42.685 115.173 42.8218 115.344 42.9935C115.514 43.1652 115.649 43.3647 115.75 43.5943C115.85 43.8217 115.899 44.0676 115.899 44.3297C115.899 45.0721 115.344 45.891 114.238 46.7818L115.897 46.7841Z" fill="#8F9AA3"/>
<path fill-rule="evenodd" clip-rule="evenodd" d="M123.14 42.4321C123.529 42.4321 123.894 42.5063 124.237 42.6548C124.58 42.8033 124.88 43.0051 125.136 43.258C125.393 43.5109 125.593 43.8101 125.741 44.1534C125.889 44.4968 125.963 44.8633 125.963 45.253C125.963 45.6428 125.889 46.0093 125.741 46.3526C125.593 46.6959 125.391 46.9952 125.136 47.2481C124.88 47.501 124.579 47.7028 124.237 47.8513C123.894 47.9997 123.529 48.074 123.14 48.074C122.75 48.074 122.386 47.9997 122.042 47.8513C121.702 47.7028 121.403 47.501 121.147 47.2481C120.894 46.9952 120.692 46.6959 120.544 46.3526C120.396 46.0093 120.321 45.6428 120.321 45.253C120.321 44.8633 120.396 44.4968 120.544 44.1534C120.692 43.8101 120.892 43.5109 121.147 43.258C121.4 43.0051 121.699 42.8033 122.042 42.6548C122.386 42.5063 122.75 42.4321 123.14 42.4321ZM123.145 46.7772C123.355 46.7772 123.553 46.7377 123.736 46.6589C123.922 46.58 124.082 46.4709 124.221 46.3317C124.361 46.1925 124.469 46.0325 124.549 45.8469C124.627 45.6613 124.667 45.4641 124.667 45.2553C124.667 45.0442 124.627 44.8471 124.549 44.6638C124.469 44.4782 124.361 44.3181 124.221 44.1789C124.082 44.0397 123.922 43.9307 123.736 43.8519C123.551 43.773 123.354 43.7335 123.145 43.7335C122.934 43.7335 122.736 43.773 122.553 43.8519C122.367 43.9307 122.207 44.0397 122.068 44.1789C121.928 44.3181 121.82 44.4782 121.741 44.6638C121.662 44.8494 121.622 45.0466 121.622 45.2553C121.622 45.4664 121.662 45.6637 121.741 45.8469C121.82 46.0325 121.928 46.1925 122.068 46.3317C122.207 46.4709 122.367 46.58 122.553 46.6589C122.736 46.7377 122.934 46.7772 123.145 46.7772Z" fill="#8F9AA3"/>
<path fill-rule="evenodd" clip-rule="evenodd" d="M134.169 46.7841V48.0833H130.395V46.682C130.768 46.457 131.109 46.2273 131.413 45.9954C131.72 45.7657 131.979 45.5407 132.193 45.3296C132.409 45.1161 132.576 44.9236 132.691 44.7473C132.81 44.5733 132.868 44.4318 132.868 44.3251C132.868 44.1604 132.812 44.0212 132.698 43.9075C132.585 43.7938 132.448 43.7382 132.284 43.7382C132.119 43.7382 131.982 43.7961 131.868 43.9098C131.754 44.0235 131.699 44.1627 131.699 44.3297H130.392C130.392 44.0676 130.444 43.824 130.543 43.5943C130.643 43.367 130.78 43.1675 130.952 42.9935C131.123 42.8218 131.323 42.685 131.553 42.5852C131.78 42.4854 132.026 42.4344 132.288 42.4344C132.55 42.4344 132.794 42.4854 133.021 42.5852C133.248 42.685 133.446 42.8218 133.617 42.9935C133.786 43.1652 133.922 43.3647 134.023 43.5943C134.123 43.8217 134.172 44.0676 134.172 44.3297C134.172 45.0721 133.617 45.891 132.51 46.7818L134.169 46.7841Z" fill="#8F9AA3"/>
<path fill-rule="evenodd" clip-rule="evenodd" d="M141.413 42.4321C141.803 42.4321 142.167 42.5063 142.51 42.6548C142.853 42.8033 143.153 43.0051 143.408 43.258C143.666 43.5109 143.865 43.8101 144.014 44.1534C144.162 44.4968 144.236 44.8633 144.236 45.253C144.236 45.6428 144.162 46.0093 144.014 46.3526C143.865 46.6959 143.663 46.9952 143.408 47.2481C143.153 47.501 142.851 47.7028 142.51 47.8513C142.167 47.9997 141.803 48.074 141.413 48.074C141.023 48.074 140.658 47.9997 140.315 47.8513C139.974 47.7028 139.675 47.501 139.42 47.2481C139.167 46.9952 138.965 46.6959 138.817 46.3526C138.668 46.0093 138.594 45.6428 138.594 45.253C138.594 44.8633 138.668 44.4968 138.817 44.1534C138.965 43.8101 139.164 43.5109 139.42 43.258C139.673 43.0051 139.972 42.8033 140.315 42.6548C140.658 42.5063 141.023 42.4321 141.413 42.4321ZM141.417 46.7772C141.628 46.7772 141.826 46.7377 142.009 46.6589C142.195 46.58 142.354 46.4709 142.494 46.3317C142.633 46.1925 142.742 46.0325 142.821 45.8469C142.9 45.6613 142.94 45.4641 142.94 45.2553C142.94 45.0442 142.9 44.8471 142.821 44.6638C142.742 44.4782 142.633 44.3181 142.494 44.1789C142.354 44.0397 142.195 43.9307 142.009 43.8519C141.826 43.773 141.626 43.7335 141.417 43.7335C141.206 43.7335 141.009 43.773 140.826 43.8519C140.642 43.9307 140.48 44.0397 140.341 44.1789C140.202 44.3181 140.093 44.4782 140.014 44.6638C139.935 44.8494 139.895 45.0466 139.895 45.2553C139.895 45.4664 139.935 45.6637 140.014 45.8469C140.093 46.0325 140.202 46.1925 140.341 46.3317C140.48 46.4709 140.64 46.58 140.826 46.6589C141.009 46.7377 141.206 46.7772 141.417 46.7772Z" fill="#8F9AA3"/>
<path fill-rule="evenodd" clip-rule="evenodd" d="M65.5836 44.4828H67.4373V37.4004H65.5836V44.4828Z" fill="#8F9AA3"/>
<path fill-rule="evenodd" clip-rule="evenodd" d="M68.8502 44.4829H70.7063V29.9468H68.8502V44.4829Z" fill="#8F9AA3"/>
<path fill-rule="evenodd" clip-rule="evenodd" d="M72.1191 44.4827H73.9752V22.5811H72.1191V44.4827Z" fill="#8F9AA3"/>
<path fill-rule="evenodd" clip-rule="evenodd" d="M75.3882 44.4828H77.242V14.9861H75.3882V44.4828Z" fill="#8F9AA3"/>
<path fill-rule="evenodd" clip-rule="evenodd" d="M78.6572 44.4829H80.5109V7.52332H78.6572V44.4829Z" fill="#8F9AA3"/>
<path fill-rule="evenodd" clip-rule="evenodd" d="M81.9261 44.4829H83.7798V0H81.9261V44.4829Z" fill="#8F9AA3"/>
<path fill-rule="evenodd" clip-rule="evenodd" d="M103.394 44.4828H101.541V37.4004H103.394V44.4828Z" fill="#8F9AA3"/>
<path fill-rule="evenodd" clip-rule="evenodd" d="M100.125 44.4829H98.2708V29.9468H100.125V44.4829Z" fill="#8F9AA3"/>
<path fill-rule="evenodd" clip-rule="evenodd" d="M96.8559 44.4827H95.002V22.5811H96.8559V44.4827Z" fill="#8F9AA3"/>
<path fill-rule="evenodd" clip-rule="evenodd" d="M93.5868 44.4828H91.7328V14.9861H93.5868V44.4828Z" fill="#8F9AA3"/>
<path fill-rule="evenodd" clip-rule="evenodd" d="M90.3177 44.4829H88.4637V7.52332H90.3177V44.4829Z" fill="#8F9AA3"/>
<path fill-rule="evenodd" clip-rule="evenodd" d="M87.0488 44.4829H85.1948V0H87.0488V44.4829Z" fill="#8F9AA3"/>
<path fill-rule="evenodd" clip-rule="evenodd" d="M106.835 48.1923V46.3387H62.1429V48.1923H106.835Z" fill="#8F9AA3"/>
</svg>
