<svg width="149" height="97" viewBox="0 0 149 97" fill="none" xmlns="http://www.w3.org/2000/svg">
<path fill-rule="evenodd" clip-rule="evenodd" d="M6.18396 76.9596C5.94216 76.9966 5.70026 77.0238 5.45846 77.0436C5.21666 77.0608 4.96746 77.0806 4.70586 77.1004V82.2565H6.10352e-05V61.8777H4.70836C5.87796 61.8975 6.97366 62.1099 7.99526 62.5198C9.01686 62.9298 9.91256 63.478 10.6826 64.1597C11.4524 64.8462 12.057 65.6464 12.4938 66.5576C12.9306 67.464 13.1477 68.4395 13.1477 69.4791C13.1477 70.5707 12.9157 71.5882 12.4518 72.5267C11.9879 73.4651 11.3364 74.2726 10.5024 74.9617L15.0157 82.2565H9.47086L6.18396 76.9596ZM4.70836 72.3612C5.20926 72.3414 5.68796 72.255 6.14206 72.097C6.59606 71.9389 6.99586 71.729 7.33886 71.4697C7.68186 71.2103 7.95076 70.9066 8.14576 70.5633C8.34066 70.2201 8.43936 69.8521 8.43936 69.4619C8.43936 69.0716 8.34066 68.7087 8.14576 68.3752C7.95076 68.0394 7.68186 67.743 7.33886 67.4837C6.99586 67.2244 6.59606 67.0145 6.14206 66.8565C5.68796 66.6984 5.20926 66.6095 4.70836 66.5922V72.3612Z" fill="#8F9AA3"/>
<path fill-rule="evenodd" clip-rule="evenodd" d="M27.8602 66.1083H20.1683V68.9369H26.4075V73.2442H20.1683V76.1992H27.8602V80.5062H15.8644V61.8258L27.8602 61.801V66.1083Z" fill="#8F9AA3"/>
<path fill-rule="evenodd" clip-rule="evenodd" d="M41.3064 80.5062L40.5688 78.2377H34.6859L33.9212 80.5062H29.3625L35.7281 61.801H39.8018L45.8381 80.5062H41.3064ZM36.1612 73.9327H39.1905L37.7131 69.3974L36.1612 73.9327Z" fill="#8F9AA3"/>
<path fill-rule="evenodd" clip-rule="evenodd" d="M58.7745 80.5062H47.6472V61.7762H51.951V76.1993H58.7745V80.5062Z" fill="#8F9AA3"/>
<path fill-rule="evenodd" clip-rule="evenodd" d="M77.111 66.1083H69.419V68.9369H75.658V73.2442H69.419V76.1992H77.111V80.5062H65.1152V61.8258L77.111 61.801V66.1083Z" fill="#8F9AA3"/>
<path fill-rule="evenodd" clip-rule="evenodd" d="M85.412 80.8629C84.819 80.8629 84.227 80.7821 83.641 80.6213C83.055 80.459 82.5 80.2086 81.974 79.8699C81.058 79.2761 80.343 78.5064 79.836 77.5627C79.326 76.6191 79.071 75.5874 79.071 74.4655H83.375C83.375 74.9757 83.486 75.3707 83.707 75.6507C83.928 75.9305 84.122 76.1224 84.293 76.2241C84.598 76.4273 84.929 76.5379 85.286 76.5559C85.642 76.5739 85.989 76.504 86.33 76.3527C86.567 76.2511 86.759 76.1224 86.903 75.9712C87.047 75.8177 87.158 75.6687 87.235 75.5242C87.312 75.3798 87.359 75.2398 87.374 75.1043C87.393 74.9689 87.399 74.8583 87.399 74.7724C87.399 74.6867 87.39 74.5761 87.374 74.4407C87.359 74.3052 87.312 74.1607 87.235 74.0072C87.158 73.8537 87.047 73.7047 86.903 73.5602C86.759 73.4158 86.567 73.2848 86.33 73.1652C86.143 73.0794 85.944 73.0049 85.732 72.9349C85.52 72.8649 85.294 72.7904 85.058 72.7046C84.634 72.5692 84.191 72.4157 83.734 72.2464C83.276 72.077 82.818 71.8468 82.358 71.5579C81.764 71.1831 81.263 70.7158 80.856 70.1559C80.447 69.5961 80.156 68.9911 79.978 68.3477C79.8 67.702 79.741 67.0361 79.8 66.3476C79.858 65.659 80.05 65.0021 80.373 64.3723C80.677 63.7943 81.061 63.2931 81.518 62.8687C81.976 62.4443 82.486 62.108 83.046 61.8619C83.605 61.6159 84.21 61.4668 84.855 61.4149C85.5 61.363 86.154 61.424 86.815 61.5933C87.46 61.7468 88.042 61.9883 88.563 62.3202C89.088 62.6521 89.54 63.0516 89.917 63.5189C90.298 63.9862 90.591 64.5077 90.791 65.0856C90.995 65.6636 91.097 66.2662 91.097 66.8961H86.815C86.815 66.5056 86.691 66.2347 86.445 66.0812C86.199 65.9277 85.983 65.8261 85.795 65.7764C85.762 65.7764 85.681 65.7629 85.554 65.738C85.427 65.7132 85.283 65.7132 85.121 65.738C84.959 65.7629 84.794 65.8238 84.625 65.9164C84.456 66.0089 84.32 66.1579 84.216 66.3633C84.081 66.6343 84.056 66.9209 84.139 67.2167C84.225 67.5146 84.395 67.7472 84.65 67.9165C84.887 68.052 85.15 68.1761 85.439 68.2867C85.728 68.3974 86.032 68.5034 86.355 68.6051C86.643 68.6908 86.937 68.7834 87.232 68.8849C87.53 68.9865 87.826 69.1062 88.132 69.2417C89.245 69.7518 90.119 70.499 90.751 71.4833C91.383 72.4676 91.701 73.5648 91.701 74.7702C91.701 75.9599 91.383 77.048 90.751 78.0323C90.119 79.0166 89.245 79.7661 88.132 80.2742C87.695 80.4774 87.246 80.6261 86.788 80.7213C86.33 80.8181 85.87 80.8629 85.412 80.8629Z" fill="#8F9AA3"/>
<path fill-rule="evenodd" clip-rule="evenodd" d="M104.79 61.7242V66.0315H101.201V80.5062H96.898V66.0315H93.332V61.7242H104.79Z" fill="#8F9AA3"/>
<path fill-rule="evenodd" clip-rule="evenodd" d="M117.856 80.5062L117.118 78.2377H111.235L110.471 80.5062H105.912L112.277 61.801H116.351L122.385 80.5062H117.856ZM112.713 73.9327H115.742L114.265 69.3974L112.713 73.9327Z" fill="#8F9AA3"/>
<path fill-rule="evenodd" clip-rule="evenodd" d="M134.918 61.7242V66.0315H131.327V80.5062H127.023V66.0315H123.459V61.7242H134.918Z" fill="#8F9AA3"/>
<path fill-rule="evenodd" clip-rule="evenodd" d="M149 66.1083H141.31V68.9369H147.549V73.2442H141.31V76.1992H149V80.5062H137.006V61.8258L149 61.801V66.1083Z" fill="#8F9AA3"/>
<path fill-rule="evenodd" clip-rule="evenodd" d="M2.90086 95.973L3.72426 93.959L1.29706 88.8118H3.10386L4.56336 91.898L5.81076 88.8118H7.58146L4.67156 95.973H2.90086Z" fill="#8F9AA3"/>
<path fill-rule="evenodd" clip-rule="evenodd" d="M15.7402 88.8589C16.2297 88.8589 16.6899 88.9517 17.1207 89.139C17.5516 89.327 17.9283 89.58 18.2508 89.898C18.5734 90.216 18.8261 90.593 19.0133 91.024C19.2005 91.455 19.2929 91.918 19.2929 92.408C19.2929 92.898 19.2005 93.36 19.0133 93.792C18.8261 94.223 18.5734 94.6 18.2508 94.919C17.9283 95.237 17.5516 95.492 17.1207 95.677C16.6899 95.864 16.2297 95.957 15.7402 95.957C15.2508 95.957 14.7906 95.864 14.3598 95.677C13.9289 95.49 13.5545 95.237 13.2342 94.919C12.9161 94.6 12.6635 94.223 12.4763 93.792C12.2891 93.36 12.1965 92.898 12.1965 92.408C12.1965 91.918 12.2891 91.458 12.4763 91.024C12.6635 90.593 12.9139 90.216 13.2342 89.898C13.5522 89.58 13.9289 89.324 14.3598 89.139C14.7906 88.9541 15.2508 88.8589 15.7402 88.8589ZM15.7447 94.327C16.0087 94.327 16.2568 94.277 16.4892 94.178C16.7215 94.079 16.9245 93.941 17.0982 93.767C17.2718 93.593 17.4094 93.39 17.5087 93.157C17.608 92.925 17.6576 92.677 17.6576 92.413C17.6576 92.149 17.608 91.9 17.5087 91.667C17.4094 91.435 17.2718 91.232 17.0982 91.058C16.9245 90.884 16.7215 90.747 16.4892 90.647C16.2568 90.547 16.0087 90.498 15.7447 90.498C15.4809 90.498 15.2327 90.547 15.0004 90.647C14.7681 90.747 14.565 90.884 14.3913 91.058C14.2176 91.232 14.08 91.435 13.9808 91.667C13.8815 91.9 13.8319 92.149 13.8319 92.413C13.8319 92.677 13.8815 92.925 13.9808 93.157C14.08 93.39 14.2176 93.593 14.3913 93.767C14.565 93.941 14.7681 94.079 15.0004 94.178C15.2327 94.277 15.4809 94.327 15.7447 94.327Z" fill="#8F9AA3"/>
<path fill-rule="evenodd" clip-rule="evenodd" d="M26.6172 95.973C26.2563 95.973 25.9134 95.907 25.5932 95.774C25.2706 95.641 24.9841 95.454 24.7337 95.207C24.4765 94.95 24.278 94.659 24.1382 94.335C24.0006 94.013 23.9262 93.668 23.9216 93.3V88.8589H25.5548V93.291C25.5548 93.575 25.6608 93.824 25.8728 94.036C26.0849 94.236 26.3375 94.335 26.6262 94.335C26.7683 94.335 26.9037 94.307 27.0323 94.248C27.1609 94.189 27.2737 94.112 27.3706 94.016C27.4676 93.918 27.5421 93.805 27.5939 93.676C27.6458 93.548 27.6707 93.408 27.6707 93.261V88.8589H29.3037V93.253C29.3105 93.62 29.2451 93.968 29.1052 94.297C28.9677 94.627 28.7759 94.914 28.5345 95.158C28.2932 95.403 28.009 95.598 27.6842 95.742C27.3594 95.886 27.0119 95.963 26.6443 95.97L26.6172 95.973Z" fill="#8F9AA3"/>
<path fill-rule="evenodd" clip-rule="evenodd" d="M36.5605 94.132C36.477 94.146 36.3935 94.156 36.31 94.162C36.2266 94.169 36.1386 94.176 36.0484 94.183V95.973H34.4153V88.8998H36.0484C36.4544 88.907 36.8356 88.9814 37.1898 89.124C37.5439 89.265 37.8552 89.455 38.1236 89.692C38.392 89.932 38.5996 90.209 38.7529 90.525C38.9041 90.839 38.9807 91.178 38.9807 91.539C38.9807 91.918 38.8996 92.27 38.7395 92.597C38.5792 92.923 38.3537 93.205 38.0627 93.442L39.6282 95.975H37.7041L36.5605 94.132ZM36.0484 92.537C36.2221 92.53 36.389 92.501 36.5469 92.444C36.7048 92.39 36.8424 92.318 36.962 92.227C37.0815 92.137 37.174 92.034 37.2416 91.914C37.3093 91.794 37.3432 91.667 37.3432 91.532C37.3432 91.397 37.3093 91.271 37.2416 91.155C37.174 91.04 37.0815 90.936 36.962 90.846C36.8424 90.755 36.7048 90.683 36.5469 90.629C36.389 90.575 36.2221 90.543 36.0484 90.536V92.537Z" fill="#8F9AA3"/>
<path fill-rule="evenodd" clip-rule="evenodd" d="M50.1893 88.8414V90.475H48.8269V95.973H47.1915V90.475H45.8381V88.8414H50.1893Z" fill="#8F9AA3"/>
<path fill-rule="evenodd" clip-rule="evenodd" d="M59.0789 95.973L58.7992 95.112H56.5661L56.2751 95.973H54.545L56.9631 88.8702H58.5105L60.8023 95.973H59.0789ZM57.1255 93.476H58.2759L57.7143 91.754L57.1255 93.476Z" fill="#8F9AA3"/>
<path fill-rule="evenodd" clip-rule="evenodd" d="M71.1875 91.995V95.973H69.5431V95.798C69.3626 95.864 69.1777 95.91 68.9882 95.938C68.7987 95.968 68.6092 95.982 68.422 95.982C67.9641 95.982 67.5175 95.894 67.0776 95.72C66.64 95.546 66.2453 95.284 65.8979 94.936C65.5505 94.589 65.2912 94.196 65.1197 93.76C64.9483 93.325 64.8625 92.877 64.8625 92.419C64.8625 91.961 64.9483 91.512 65.1197 91.074C65.2912 90.636 65.5505 90.241 65.8979 89.893C66.2453 89.545 66.64 89.284 67.0776 89.11C67.5153 88.9358 67.9641 88.8478 68.422 88.8478C68.8799 88.8478 69.3266 88.9358 69.7664 89.11C70.2041 89.284 70.5988 89.545 70.9462 89.893L69.7867 91.054C69.5995 90.866 69.3875 90.726 69.1483 90.634C68.9093 90.541 68.6679 90.494 68.422 90.494C68.1761 90.494 67.9348 90.541 67.698 90.634C67.4589 90.726 67.2468 90.868 67.0596 91.054C66.8724 91.241 66.7303 91.453 66.6333 91.692C66.5363 91.932 66.4889 92.174 66.4889 92.417C66.4889 92.663 66.5363 92.905 66.6333 93.141C66.7303 93.381 66.8724 93.593 67.0596 93.78C67.2265 93.948 67.416 94.079 67.6257 94.173C67.8355 94.266 68.0521 94.323 68.2732 94.338C68.4965 94.354 68.7153 94.334 68.9363 94.275C69.1551 94.216 69.3581 94.12 69.5453 93.984V93.624H68.1243V91.99H71.1875V91.995Z" fill="#8F9AA3"/>
<path fill-rule="evenodd" clip-rule="evenodd" d="M80.3211 95.973H76.0941V88.8589H77.729V94.335H80.3211V95.973Z" fill="#8F9AA3"/>
<path fill-rule="evenodd" clip-rule="evenodd" d="M86.7541 95.973H85.1191V88.8589H86.7541V95.973Z" fill="#8F9AA3"/>
<path fill-rule="evenodd" clip-rule="evenodd" d="M95.9441 88.8685H97.5771V95.973H95.8091L93.4871 91.83V95.973H91.8541V88.8885H93.6321L95.9441 93.02V88.8685Z" fill="#8F9AA3"/>
<path fill-rule="evenodd" clip-rule="evenodd" d="M107.485 90.659H104.29V91.834H106.883V93.622H104.29V94.849H107.485V96.64H102.503V88.8808L107.485 88.8685V90.659Z" fill="#8F9AA3"/>
<path fill-rule="evenodd" clip-rule="evenodd" d="M117.195 88.8685H118.828V95.973H117.195V93.291H115.144V95.973H113.511V88.8685H115.144V91.656H117.195V88.8685Z" fill="#8F9AA3"/>
<path fill-rule="evenodd" clip-rule="evenodd" d="M128.23 90.505H125.311V91.579H127.679V93.214H125.311V94.335H128.23V95.973H123.676V88.8797L128.23 88.8685V90.505Z" fill="#8F9AA3"/>
<path fill-rule="evenodd" clip-rule="evenodd" d="M135.35 94.132C135.267 94.146 135.184 94.156 135.098 94.162C135.015 94.169 134.927 94.176 134.836 94.183V95.973H133.204V88.8998H134.836C135.242 88.907 135.624 88.9814 135.978 89.124C136.332 89.265 136.643 89.455 136.912 89.692C137.18 89.932 137.388 90.209 137.541 90.525C137.692 90.839 137.769 91.178 137.769 91.539C137.769 91.918 137.688 92.27 137.528 92.597C137.368 92.923 137.142 93.205 136.851 93.442L138.416 95.975H136.492L135.35 94.132ZM134.839 92.537C135.012 92.53 135.179 92.501 135.337 92.444C135.495 92.39 135.632 92.318 135.753 92.227C135.872 92.137 135.964 92.034 136.032 91.914C136.099 91.794 136.133 91.667 136.133 91.532C136.133 91.397 136.099 91.271 136.032 91.155C135.964 91.04 135.872 90.936 135.753 90.846C135.632 90.755 135.495 90.683 135.337 90.629C135.179 90.575 135.012 90.543 134.839 90.536V92.537Z" fill="#8F9AA3"/>
<path fill-rule="evenodd" clip-rule="evenodd" d="M147.712 90.505H144.791V91.579H147.162V93.214H144.791V94.335H147.712V95.973H143.158V88.8797L147.712 88.8685V90.505Z" fill="#8F9AA3"/>
<path fill-rule="evenodd" clip-rule="evenodd" d="M23.5 49.3419H20.951V50.281H23.0195V51.7078H20.951V52.6875H23.5V54.1143H19.5254V47.9242L23.5 47.9152V49.3419Z" fill="#8F9AA3"/>
<path fill-rule="evenodd" clip-rule="evenodd" d="M26.5632 54.2339C26.3669 54.2339 26.1707 54.2068 25.9766 54.1526C25.7827 54.0984 25.5977 54.0149 25.4241 53.9043C25.1195 53.7079 24.8827 53.4528 24.7158 53.139C24.5488 52.8252 24.4631 52.4843 24.4631 52.1118H25.8887C25.8887 52.2812 25.9248 52.4121 25.9992 52.5047C26.0714 52.5972 26.1369 52.6604 26.1933 52.6943C26.2948 52.762 26.4053 52.7981 26.5226 52.8049C26.6399 52.8116 26.7571 52.7891 26.8677 52.7372C26.9467 52.7033 27.0098 52.6604 27.0571 52.6107C27.1046 52.5611 27.1406 52.5114 27.1677 52.464C27.1925 52.4166 27.2083 52.3692 27.215 52.324C27.2218 52.2789 27.2241 52.2428 27.2241 52.2134C27.2241 52.1841 27.2218 52.148 27.215 52.1028C27.2105 52.0577 27.1948 52.0103 27.1677 51.9584C27.1429 51.9087 27.1068 51.859 27.0571 51.8116C27.0098 51.7642 26.9467 51.719 26.8677 51.6806C26.8068 51.6535 26.7391 51.6265 26.6692 51.6039C26.5992 51.5813 26.5248 51.5565 26.4458 51.5272C26.306 51.482 26.1594 51.4323 26.006 51.3759C25.8549 51.3194 25.7015 51.2427 25.5504 51.1479C25.3541 51.0237 25.1872 50.8702 25.0519 50.6828C24.9165 50.4978 24.8195 50.2968 24.7609 50.0824C24.7022 49.8679 24.682 49.6466 24.7022 49.4187C24.7225 49.1906 24.7857 48.9716 24.8917 48.764C24.9932 48.5721 25.1195 48.4073 25.2707 48.2651C25.4217 48.1251 25.5909 48.0122 25.7759 47.931C25.9609 47.8497 26.1616 47.8 26.3759 47.7842C26.5903 47.7684 26.8068 47.7865 27.0256 47.8429C27.2399 47.8926 27.4316 47.9738 27.6053 48.0845C27.779 48.1951 27.9278 48.326 28.0542 48.4818C28.1805 48.6376 28.2775 48.8091 28.3429 49.001C28.4106 49.1929 28.4444 49.3916 28.4444 49.6015H27.0256C27.0256 49.4728 26.985 49.3825 26.9038 49.3306C26.8226 49.2809 26.7504 49.2471 26.6894 49.229C26.6782 49.229 26.6512 49.2245 26.6083 49.2154C26.5654 49.2065 26.518 49.2065 26.4639 49.2154C26.4098 49.2245 26.3556 49.2426 26.2992 49.2742C26.2428 49.3057 26.1977 49.3554 26.1639 49.4209C26.1188 49.5112 26.1098 49.606 26.1391 49.7031C26.1662 49.8024 26.2226 49.8792 26.3083 49.9356C26.3872 49.9807 26.4752 50.0214 26.5699 50.0575C26.6647 50.0937 26.7662 50.1297 26.8744 50.1637C26.9714 50.1907 27.0662 50.2223 27.1654 50.2562C27.2647 50.29 27.3617 50.3284 27.4632 50.3735C27.8309 50.5429 28.1218 50.7912 28.3317 51.1163C28.5414 51.4437 28.6474 51.8071 28.6474 52.2066C28.6474 52.6018 28.5414 52.9606 28.3317 53.288C28.1218 53.6153 27.8331 53.8614 27.4632 54.0307C27.3188 54.0984 27.1699 54.1481 27.0165 54.1775C26.8654 54.2181 26.7143 54.2339 26.5632 54.2339Z" fill="#8F9AA3"/>
<path fill-rule="evenodd" clip-rule="evenodd" d="M33.2964 47.8903V49.3171H32.1077V54.1142H30.6798V49.3171H29.5001V47.8903H33.2964Z" fill="#8F9AA3"/>
<path fill-rule="evenodd" clip-rule="evenodd" d="M35.6266 47.8903C36.0371 47.9129 36.4251 48.0122 36.786 48.186C37.1492 48.3599 37.4649 48.5879 37.7311 48.8701C37.9996 49.1522 38.2093 49.4774 38.365 49.8498C38.5206 50.2223 38.5974 50.6174 38.5974 51.0418C38.5974 51.4594 38.5206 51.8477 38.3695 52.2112C38.2184 52.5746 38.0086 52.8929 37.7401 53.1706C37.474 53.446 37.1582 53.6672 36.7995 53.8343C36.4386 54.0013 36.0484 54.0939 35.6266 54.1165H34.201V47.8813H35.6266V47.8903ZM35.6266 52.6785C35.8453 52.6559 36.0507 52.5972 36.2379 52.5046C36.4273 52.4121 36.5898 52.2924 36.7273 52.1502C36.8649 52.0057 36.9732 51.8387 37.0522 51.6468C37.1311 51.4549 37.1694 51.2518 37.1694 51.0396C37.1694 50.8206 37.1311 50.6106 37.0522 50.4097C36.9732 50.2088 36.8627 50.0327 36.7228 49.8769C36.583 49.7212 36.4183 49.5947 36.2334 49.4977C36.0484 49.3984 35.8453 49.3396 35.6266 49.3171V52.6785Z" fill="#8F9AA3"/>
<path fill-rule="evenodd" clip-rule="evenodd" d="M111.246 47.8994H112.672V54.1142H111.246V50.1613L110.825 50.6851L109.717 49.7821L111.246 47.8994Z" fill="#8F9AA3"/>
<path d="M115.896 52.3828C115.614 52.3557 115.349 52.2766 115.102 52.1503C114.853 52.0238 114.639 51.8613 114.456 51.6649C114.273 51.4685 114.129 51.2404 114.025 50.9809C113.922 50.7213 113.87 50.4459 113.87 50.1524C113.87 49.8431 113.928 49.5519 114.048 49.2787C114.165 49.0056 114.325 48.7685 114.528 48.5653C114.732 48.3622 114.968 48.2019 115.241 48.0845C115.514 47.9671 115.805 47.9062 116.114 47.9062C116.423 47.9062 116.714 47.9648 116.983 48.0845C117.253 48.2019 117.491 48.3622 117.691 48.5653C117.894 48.7685 118.054 49.0056 118.171 49.2787C118.288 49.5519 118.349 49.8431 118.349 50.1524C118.349 50.4842 118.28 50.8048 118.138 51.1163L116.62 54.1143H115.025L115.896 52.3828ZM116.114 49.3351C116.001 49.3351 115.896 49.3554 115.799 49.3984C115.699 49.4413 115.614 49.5 115.537 49.5767C115.46 49.6535 115.401 49.7393 115.359 49.8385C115.316 49.9379 115.296 50.0418 115.296 50.1546C115.296 50.2675 115.316 50.3736 115.359 50.4707C115.401 50.57 115.46 50.6557 115.537 50.728C115.614 50.8003 115.699 50.859 115.799 50.9019C115.898 50.9447 116.001 50.965 116.114 50.965C116.34 50.965 116.532 50.886 116.687 50.728C116.845 50.57 116.924 50.3781 116.924 50.1546C116.924 50.0418 116.903 49.9356 116.861 49.8385C116.818 49.7393 116.762 49.6535 116.687 49.5767C116.615 49.5 116.529 49.4413 116.43 49.3984C116.333 49.3554 116.227 49.3351 116.114 49.3351Z" fill="#8F9AA3"/>
<path d="M115.896 52.3828C115.614 52.3557 115.349 52.2766 115.102 52.1503C114.853 52.0238 114.639 51.8613 114.456 51.6649C114.273 51.4685 114.129 51.2404 114.025 50.9809C113.922 50.7213 113.87 50.4459 113.87 50.1524C113.87 49.8431 113.928 49.5519 114.048 49.2787C114.165 49.0056 114.325 48.7685 114.528 48.5653C114.732 48.3622 114.968 48.2019 115.241 48.0845C115.514 47.9671 115.805 47.9062 116.114 47.9062C116.423 47.9062 116.714 47.9648 116.983 48.0845C117.253 48.2019 117.491 48.3622 117.691 48.5653C117.894 48.7685 118.054 49.0056 118.171 49.2787C118.288 49.5519 118.349 49.8431 118.349 50.1524C118.349 50.4842 118.28 50.8048 118.138 51.1163L116.62 54.1143H115.025L115.896 52.3828ZM116.114 49.3351C116.001 49.3351 115.896 49.3554 115.799 49.3984C115.699 49.4413 115.614 49.5 115.537 49.5767C115.46 49.6535 115.401 49.7393 115.359 49.8385C115.316 49.9379 115.296 50.0418 115.296 50.1546C115.296 50.2675 115.316 50.3736 115.359 50.4707C115.401 50.57 115.46 50.6557 115.537 50.728C115.614 50.8003 115.699 50.859 115.799 50.9019C115.898 50.9447 116.001 50.965 116.114 50.965C116.34 50.965 116.532 50.886 116.687 50.728C116.845 50.57 116.924 50.3781 116.924 50.1546C116.924 50.0418 116.903 49.9356 116.861 49.8385C116.818 49.7393 116.762 49.6535 116.687 49.5767C116.615 49.5 116.529 49.4413 116.43 49.3984C116.333 49.3554 116.227 49.3351 116.114 49.3351Z" fill="#8F9AA3"/>
<path fill-rule="evenodd" clip-rule="evenodd" d="M121.456 52.3828C121.174 52.3557 120.909 52.2766 120.662 52.1503C120.414 52.0238 120.199 51.8613 120.016 51.6649C119.834 51.4685 119.689 51.2404 119.586 50.9809C119.482 50.7213 119.43 50.4459 119.43 50.1524C119.43 49.8431 119.488 49.5519 119.609 49.2787C119.726 49.0056 119.886 48.7685 120.088 48.5653C120.292 48.3622 120.529 48.2019 120.801 48.0845C121.075 47.9671 121.365 47.9062 121.675 47.9062C121.984 47.9062 122.275 47.9648 122.543 48.0845C122.814 48.2019 123.048 48.3622 123.251 48.5653C123.455 48.7685 123.615 49.0056 123.732 49.2787C123.849 49.5519 123.91 49.8431 123.91 50.1524C123.91 50.4842 123.84 50.8048 123.698 51.1163L122.18 54.1143H120.585L121.456 52.3828ZM121.677 49.3351C121.564 49.3351 121.458 49.3554 121.361 49.3984C121.262 49.4413 121.176 49.5 121.099 49.5767C121.022 49.6535 120.964 49.7393 120.921 49.8385C120.878 49.9379 120.858 50.0418 120.858 50.1546C120.858 50.2675 120.878 50.3736 120.921 50.4707C120.964 50.57 121.022 50.6557 121.099 50.728C121.176 50.8003 121.262 50.859 121.361 50.9019C121.46 50.9447 121.564 50.965 121.677 50.965C121.902 50.965 122.094 50.886 122.25 50.728C122.408 50.57 122.487 50.3781 122.487 50.1546C122.487 50.0418 122.466 49.9356 122.424 49.8385C122.38 49.7393 122.324 49.6535 122.25 49.5767C122.178 49.5 122.092 49.4413 121.993 49.3984C121.893 49.3554 121.79 49.3351 121.677 49.3351Z" fill="#8F9AA3"/>
<path fill-rule="evenodd" clip-rule="evenodd" d="M127.018 52.3828C126.737 52.3557 126.472 52.2766 126.225 52.1503C125.976 52.0238 125.762 51.8613 125.579 51.6649C125.396 51.4685 125.252 51.2404 125.148 50.9809C125.045 50.7213 124.993 50.4459 124.993 50.1524C124.993 49.8431 125.051 49.5519 125.171 49.2787C125.288 49.0056 125.448 48.7685 125.651 48.5653C125.855 48.3622 126.091 48.2019 126.364 48.0845C126.637 47.9671 126.928 47.9062 127.237 47.9062C127.546 47.9062 127.837 47.9648 128.106 48.0845C128.376 48.2019 128.613 48.3622 128.814 48.5653C129.017 48.7685 129.177 49.0056 129.294 49.2787C129.411 49.5519 129.472 49.8431 129.472 50.1524C129.472 50.4842 129.402 50.8048 129.261 51.1163L127.743 54.1143H126.148L127.018 52.3828ZM127.237 49.3351C127.124 49.3351 127.018 49.3554 126.922 49.3984C126.822 49.4413 126.737 49.5 126.66 49.5767C126.583 49.6535 126.524 49.7393 126.482 49.8385C126.439 49.9379 126.418 50.0418 126.418 50.1546C126.418 50.2675 126.439 50.3736 126.482 50.4707C126.524 50.57 126.583 50.6557 126.66 50.728C126.737 50.8003 126.822 50.859 126.922 50.9019C127.021 50.9447 127.124 50.965 127.237 50.965C127.462 50.965 127.655 50.886 127.81 50.728C127.968 50.57 128.047 50.3781 128.047 50.1546C128.047 50.0418 128.026 49.9356 127.984 49.8385C127.941 49.7393 127.884 49.6535 127.81 49.5767C127.738 49.5 127.652 49.4413 127.553 49.3984C127.456 49.3554 127.35 49.3351 127.237 49.3351Z" fill="#8F9AA3"/>
<path fill-rule="evenodd" clip-rule="evenodd" d="M54.4797 59.3297V38.506L64.6216 32.4727V13.9903L88.1431 0V20.9817L98.2851 27.0149V59.3297H95.0471V28.8499L88.1431 24.7429V59.3297H84.9051V22.8167L78.0011 18.7097V24.5108V59.3272H74.7637V30.2007L67.8592 34.3077V59.3297H64.6216V36.234L57.7172 40.3409V59.3297H54.4797ZM67.8592 30.5465L74.7637 26.4395V13.0222L84.9051 19.0554V5.6875L67.8592 15.8277V30.5465Z" fill="#8F9AA3"/>
</svg>
