<svg width="169" height="81" viewBox="0 0 169 81" fill="none" xmlns="http://www.w3.org/2000/svg">
<path fill-rule="evenodd" clip-rule="evenodd" d="M12.2172 49.736V54.3043H8.38826V69.6581H3.80046V54.3043H6.10352e-05V49.736H12.2172Z" fill="#8F9AA3"/>
<path fill-rule="evenodd" clip-rule="evenodd" d="M29.1274 54.3851H20.9278V57.3856H27.5791V61.9539H20.9278V65.0898H29.1274V69.6581H16.34V49.843L29.1274 49.8168V54.3851Z" fill="#8F9AA3"/>
<path fill-rule="evenodd" clip-rule="evenodd" d="M42.5637 69.6319C41.2786 69.6319 40.0264 69.3939 38.8027 68.9157C37.5813 68.4374 36.4826 67.7124 35.5045 66.7385C34.5637 65.7842 33.8445 64.7054 33.3466 63.5087C32.8488 62.3099 32.601 61.0433 32.601 59.7113C32.601 58.3596 32.8488 57.0843 33.3466 55.8854C33.8445 54.6865 34.5637 53.6187 35.5045 52.6819C36.4826 51.7079 37.5856 50.9786 38.8159 50.4916C40.0462 50.0046 41.3005 49.7622 42.5768 49.7622C43.8532 49.7622 45.101 50.0046 46.3225 50.4916C47.544 50.9786 48.6426 51.7079 49.6207 52.6819L46.3904 55.8985C45.8664 55.3765 45.2677 54.9835 44.5988 54.7237C43.9299 54.4616 43.2501 54.3306 42.5637 54.3306C41.8773 54.3306 41.2018 54.4616 40.5418 54.7237C39.8817 54.9857 39.2874 55.3765 38.7632 55.8985C38.2567 56.4204 37.8686 57.0079 37.5967 57.6564C37.3247 58.3049 37.1887 58.9907 37.1887 59.7113C37.1887 60.4319 37.3247 61.1133 37.5967 61.7531C37.8686 62.3929 38.2567 62.9738 38.7632 63.4957C39.2874 64.0176 39.8817 64.4107 40.5418 64.6727C41.2018 64.9348 41.8773 65.0657 42.5637 65.0657C43.2523 65.0657 43.9299 64.9348 44.5988 64.6727C45.2677 64.4107 45.8664 64.0198 46.3904 63.4957L49.6207 66.7407C48.6426 67.7146 47.5484 68.4396 46.3357 68.9179C45.1251 69.3917 43.8663 69.6319 42.5637 69.6319Z" fill="#8F9AA3"/>
<path fill-rule="evenodd" clip-rule="evenodd" d="M63.3289 49.8168H67.9167V69.6581H63.3289V62.1701H57.5746V69.6581H52.9847V49.8168H57.5746V57.6018H63.3289V49.8168Z" fill="#8F9AA3"/>
<path fill-rule="evenodd" clip-rule="evenodd" d="M87.1891 49.8168H91.7781V69.6581H87.1891V62.1701H81.4343V69.6581H76.8467V49.8168H81.4343V57.6018H87.1891V49.8168Z" fill="#8F9AA3"/>
<path fill-rule="evenodd" clip-rule="evenodd" d="M105.144 49.7884C106.52 49.7884 107.809 50.0505 109.022 50.5724C110.231 51.0943 111.29 51.8018 112.193 52.695C113.098 53.5881 113.809 54.6363 114.333 55.8439C114.857 57.0514 115.12 58.3399 115.12 59.7091C115.12 61.0782 114.857 62.3667 114.333 63.5743C113.809 64.7819 113.098 65.8322 112.193 66.7232C111.287 67.6142 110.231 68.3217 109.022 68.8458C107.809 69.3677 106.52 69.6297 105.144 69.6297C103.769 69.6297 102.48 69.3677 101.268 68.8458C100.059 68.3239 99.004 67.6164 98.109 66.7232C97.215 65.83 96.508 64.7819 95.983 63.5743C95.458 62.3667 95.196 61.0782 95.196 59.7091C95.196 58.3399 95.458 57.0514 95.983 55.8439C96.507 54.6363 97.212 53.5859 98.109 52.695C99.007 51.8018 100.059 51.0965 101.268 50.5724C102.48 50.0505 103.769 49.7884 105.144 49.7884ZM105.16 65.0636C105.901 65.0636 106.599 64.9238 107.25 64.6443C107.901 64.3648 108.472 63.9827 108.961 63.4957C109.449 63.0087 109.833 62.4409 110.114 61.7924C110.394 61.1438 110.535 60.4493 110.535 59.7113C110.535 58.9731 110.394 58.2788 110.114 57.6302C109.833 56.9816 109.449 56.4138 108.961 55.9269C108.472 55.4399 107.901 55.0577 107.25 54.7782C106.599 54.4987 105.901 54.359 105.16 54.359C104.419 54.359 103.722 54.4987 103.071 54.7782C102.419 55.0577 101.848 55.4399 101.359 55.9269C100.871 56.4138 100.487 56.9816 100.206 57.6302C99.926 58.2788 99.785 58.9731 99.785 59.7113C99.785 60.4493 99.926 61.1438 100.206 61.7924C100.487 62.4409 100.871 63.0087 101.359 63.4957C101.848 63.9827 102.419 64.3648 103.071 64.6443C103.719 64.9238 104.417 65.0636 105.16 65.0636Z" fill="#8F9AA3"/>
<path fill-rule="evenodd" clip-rule="evenodd" d="M126.549 69.6581C125.535 69.6581 124.575 69.4725 123.672 69.1034C122.765 68.7345 121.96 68.206 121.255 67.5225C120.531 66.8018 119.974 65.9916 119.586 65.0898C119.198 64.1879 118.994 63.2249 118.973 62.1963V49.7884H123.561V62.1701C123.561 62.9628 123.86 63.6573 124.456 64.2512C125.052 64.8103 125.759 65.0898 126.575 65.0898C126.974 65.0898 127.353 65.009 127.715 64.8474C128.076 64.6858 128.392 64.4696 128.664 64.1988C128.937 63.928 129.145 63.6136 129.289 63.2533C129.434 62.8929 129.507 62.5043 129.507 62.0915V49.7906H134.094V62.0631C134.112 63.0895 133.928 64.0635 133.537 64.9828C133.149 65.9021 132.614 66.7035 131.936 67.3892C131.259 68.0749 130.46 68.6186 129.548 69.0248C128.634 69.431 127.662 69.6429 126.629 69.6603H126.549V69.6581Z" fill="#8F9AA3"/>
<path fill-rule="evenodd" clip-rule="evenodd" d="M145.223 70.0359C144.59 70.0359 143.961 69.9507 143.338 69.7782C142.713 69.6079 142.12 69.3415 141.559 68.9811C140.582 68.3501 139.822 67.5356 139.279 66.5354C138.734 65.5353 138.465 64.4412 138.465 63.2511H143.053C143.053 63.7926 143.171 64.2097 143.406 64.5089C143.641 64.8059 143.849 65.009 144.031 65.1181C144.357 65.3344 144.708 65.4523 145.09 65.4697C145.47 65.4872 145.842 65.4152 146.204 65.2536C146.458 65.1444 146.66 65.0112 146.816 64.8474C146.97 64.6858 147.088 64.5286 147.169 64.3735C147.25 64.2207 147.301 64.0721 147.318 63.928C147.336 63.7839 147.344 63.666 147.344 63.5765C147.344 63.4869 147.336 63.369 147.318 63.2249C147.301 63.0807 147.25 62.9279 147.169 62.7663C147.088 62.6047 146.97 62.4475 146.816 62.2924C146.662 62.1396 146.458 61.9998 146.204 61.8732C146.005 61.7836 145.792 61.7028 145.566 61.6308C145.34 61.5587 145.099 61.4779 144.846 61.3884C144.395 61.2442 143.923 61.0826 143.434 60.9014C142.945 60.7202 142.456 60.4778 141.969 60.172C141.336 59.7746 140.802 59.2789 140.368 58.685C139.934 58.0909 139.623 57.4512 139.432 56.7655C139.241 56.0797 139.178 55.3722 139.241 54.6428C139.305 53.9135 139.509 53.2147 139.853 52.5486C140.18 51.935 140.586 51.4044 141.075 50.9545C141.564 50.5047 142.105 50.1488 142.704 49.8867C143.301 49.6247 143.943 49.4674 144.632 49.4128C145.32 49.3582 146.016 49.4216 146.722 49.6028C147.41 49.7644 148.029 50.0221 148.586 50.3737C149.147 50.7252 149.628 51.1489 150.028 51.6446C150.436 52.1403 150.748 52.695 150.961 53.3064C151.177 53.92 151.287 54.5599 151.287 55.2259H146.722C146.722 54.811 146.59 54.5227 146.327 54.3611C146.063 54.1995 145.833 54.0904 145.634 54.0358C145.599 54.0358 145.511 54.0226 145.375 53.9943C145.239 53.9681 145.086 53.9681 144.914 53.9943C144.744 54.0205 144.566 54.0838 144.386 54.1842C144.206 54.2825 144.059 54.4419 143.952 54.6582C143.807 54.9464 143.781 55.2478 143.871 55.5644C143.961 55.8788 144.142 56.1278 144.414 56.3068C144.669 56.451 144.947 56.582 145.257 56.6999C145.564 56.8178 145.89 56.9292 146.235 57.0384C146.541 57.128 146.856 57.2284 147.171 57.3353C147.487 57.4424 147.805 57.5691 148.13 57.7132C149.316 58.2547 150.248 59.0474 150.921 60.0912C151.595 61.1372 151.934 62.299 151.934 63.5787C151.934 64.8408 151.595 65.9938 150.921 67.0398C150.248 68.0859 149.316 68.8785 148.13 69.4179C147.664 69.6341 147.184 69.7913 146.695 69.8917C146.202 69.9879 145.713 70.0359 145.223 70.0359Z" fill="#8F9AA3"/>
<path fill-rule="evenodd" clip-rule="evenodd" d="M168.84 54.3851H160.642V57.3856H167.294V61.9539H160.642V65.0898H168.84V69.6581H156.055V49.843L168.84 49.8168V54.3851Z" fill="#8F9AA3"/>
<path fill-rule="evenodd" clip-rule="evenodd" d="M20.4628 80.7928L21.1339 79.1532L19.1492 74.9625H20.6273L21.8225 77.4758L22.8422 74.9625H24.2918L21.9102 80.7928H20.4628Z" fill="#8F9AA3"/>
<path fill-rule="evenodd" clip-rule="evenodd" d="M31.7348 75.0038C32.1361 75.0038 32.511 75.0804 32.8642 75.2336C33.2172 75.3859 33.5242 75.5913 33.7874 75.8513C34.0506 76.1114 34.2589 76.4169 34.4102 76.7688C34.5637 77.1197 34.6404 77.4951 34.6404 77.8949C34.6404 78.2947 34.5637 78.6701 34.4102 79.0219C34.2567 79.3737 34.0506 79.6792 33.7874 79.9393C33.5242 80.1994 33.215 80.4039 32.8642 80.5571C32.511 80.7103 32.1361 80.786 31.7348 80.786C31.3334 80.786 30.9585 80.7103 30.6054 80.5571C30.2545 80.4039 29.9453 80.1994 29.6844 79.9393C29.4234 79.6792 29.2172 79.3737 29.0637 79.0219C28.9102 78.6701 28.8334 78.2947 28.8334 77.8949C28.8334 77.4951 28.9102 77.1197 29.0637 76.7688C29.2172 76.4169 29.4234 76.1114 29.6844 75.8513C29.9453 75.5913 30.2523 75.3859 30.6054 75.2336C30.9585 75.0778 31.3334 75.0038 31.7348 75.0038ZM31.7392 79.4545C31.9562 79.4545 32.158 79.4124 32.3488 79.3316C32.5396 79.2508 32.7041 79.1397 32.8466 78.9983C32.9892 78.8561 33.101 78.6903 33.1821 78.5026C33.2633 78.3124 33.3049 78.1112 33.3049 77.8949C33.3049 77.6786 33.2633 77.4783 33.1821 77.2881C33.101 77.0979 32.9892 76.9346 32.8466 76.7923C32.7041 76.6501 32.5374 76.539 32.3488 76.4582C32.1602 76.3774 31.9562 76.3361 31.7392 76.3361C31.522 76.3361 31.3203 76.3774 31.1295 76.4582C30.9387 76.539 30.7743 76.6501 30.6317 76.7923C30.4892 76.9346 30.3773 77.1004 30.2961 77.2881C30.215 77.4783 30.1733 77.6786 30.1733 77.8949C30.1733 78.1112 30.215 78.3124 30.2961 78.5026C30.3773 78.692 30.4892 78.8561 30.6317 78.9983C30.7743 79.1397 30.9409 79.2508 31.1295 79.3316C31.3203 79.4124 31.522 79.4545 31.7392 79.4545Z" fill="#8F9AA3"/>
<path fill-rule="evenodd" clip-rule="evenodd" d="M41.4013 80.7928C41.1053 80.7928 40.8268 80.7381 40.5636 80.6312C40.3004 80.5243 40.0658 80.3694 39.8597 80.1708C39.6492 79.9612 39.4869 79.7247 39.3728 79.4613C39.2588 79.1987 39.1997 78.9175 39.1953 78.6179V75.0021H40.533V78.6095C40.533 78.8409 40.6206 79.0413 40.7938 79.2163C40.9671 79.3805 41.1734 79.4613 41.4103 79.4613C41.5264 79.4613 41.636 79.4368 41.7435 79.3914C41.8487 79.3426 41.9408 79.2795 42.0197 79.2012C42.0987 79.1221 42.1602 79.0303 42.2019 78.926C42.2435 78.8207 42.2654 78.7071 42.2654 78.5876V75.0038H43.6031V78.5809C43.6075 78.8797 43.5548 79.1641 43.4409 79.4326C43.3268 79.7011 43.1711 79.9351 42.9738 80.1337C42.7764 80.3324 42.5439 80.4915 42.2785 80.6093C42.0132 80.7271 41.7282 80.7886 41.4277 80.7953H41.4013V80.7928Z" fill="#8F9AA3"/>
<path fill-rule="evenodd" clip-rule="evenodd" d="M50.3049 79.2946C50.237 79.3055 50.1668 79.3123 50.0988 79.319C50.0308 79.3232 49.9584 79.33 49.8861 79.3342V80.7911H48.5484V75.0324H49.8861C50.2172 75.0366 50.5286 75.0981 50.8204 75.2134C51.1098 75.3295 51.3642 75.4844 51.5835 75.6763C51.8027 75.8707 51.9738 76.0954 52.0966 76.3538C52.2216 76.6088 52.283 76.8841 52.283 77.1786C52.283 77.4867 52.2173 77.7754 52.0856 78.0397C51.9541 78.3031 51.7699 78.5329 51.5308 78.7273L52.8116 80.7886H51.237L50.3049 79.2946ZM49.8861 77.9959C50.0287 77.9909 50.1647 77.9648 50.294 77.921C50.4234 77.8781 50.5374 77.8183 50.6339 77.7443C50.7326 77.6702 50.8072 77.5852 50.8642 77.4892C50.919 77.3908 50.9475 77.2881 50.9475 77.1786C50.9475 77.0701 50.919 76.9674 50.8642 76.8706C50.8094 76.7772 50.7326 76.6922 50.6339 76.6198C50.5374 76.5457 50.4234 76.4868 50.294 76.443C50.1647 76.3993 50.0287 76.3732 49.8861 76.369V77.9959Z" fill="#8F9AA3"/>
<path fill-rule="evenodd" clip-rule="evenodd" d="M62.2238 74.9861V76.3185H61.1076V80.7928H59.7699V76.3185H58.6646V74.9861H62.2238Z" fill="#8F9AA3"/>
<path fill-rule="evenodd" clip-rule="evenodd" d="M70.2653 80.793L70.035 80.0919H68.2082L67.9714 80.793H66.5547L68.5328 75.0107H69.7981L71.6731 80.793H70.2653ZM68.6665 78.7603H69.6074L69.1489 77.3581L68.6665 78.7603Z" fill="#8F9AA3"/>
<path fill-rule="evenodd" clip-rule="evenodd" d="M80.9409 77.5549V80.7927H79.5966V80.6513C79.4497 80.7035 79.2984 80.7431 79.1427 80.7641C78.987 80.7885 78.8335 80.7995 78.68 80.7995C78.305 80.7995 77.9387 80.7296 77.5813 80.5874C77.2216 80.446 76.9014 80.2339 76.6163 79.9502C76.3313 79.6658 76.1185 79.3476 75.9804 78.9933C75.8401 78.6398 75.7699 78.2753 75.7699 77.9016C75.7699 77.5279 75.8401 77.1635 75.9804 76.8075C76.1207 76.4498 76.3335 76.1308 76.6163 75.8471C76.9014 75.5626 77.2238 75.3514 77.5813 75.2091C77.9409 75.0669 78.3072 74.997 78.68 74.997C79.0549 74.997 79.4212 75.0669 79.7787 75.2091C80.1383 75.3514 80.4585 75.5626 80.7436 75.8471L79.794 76.7923C79.6405 76.6391 79.4673 76.5263 79.2721 76.4497C79.0769 76.3732 78.8795 76.3361 78.6778 76.3361C78.4782 76.3361 78.2787 76.3732 78.0835 76.4497C77.8883 76.5263 77.7151 76.6391 77.5616 76.7923C77.408 76.9455 77.2918 77.118 77.2129 77.3125C77.1339 77.506 77.0945 77.703 77.0945 77.9041C77.0945 78.1028 77.1339 78.3014 77.2129 78.4933C77.2918 78.6877 77.408 78.8603 77.5616 79.0135C77.6997 79.1507 77.8532 79.2559 78.0243 79.3316C78.1954 79.4082 78.3729 79.452 78.555 79.4654C78.737 79.4781 78.9168 79.4612 79.0966 79.4149C79.2764 79.367 79.4409 79.2887 79.5945 79.1793V78.8889H78.4322V77.5565H80.9409V77.5549Z" fill="#8F9AA3"/>
<path fill-rule="evenodd" clip-rule="evenodd" d="M89.1801 80.7928H85.7211V75.0038H87.0591V79.4613H89.1801V80.7928Z" fill="#8F9AA3"/>
<path fill-rule="evenodd" clip-rule="evenodd" d="M95.2111 80.7928H93.8751V75.0038H95.2111V80.7928Z" fill="#8F9AA3"/>
<path fill-rule="evenodd" clip-rule="evenodd" d="M103.498 75.0107H104.835V80.793H103.388L101.489 77.4213V80.793H100.152V75.0259H101.607L103.498 78.3909V75.0107Z" fill="#8F9AA3"/>
<path fill-rule="evenodd" clip-rule="evenodd" d="M113.36 76.3431H110.969V77.2159H112.908V78.5482H110.969V79.4615H113.36V80.793H109.633V75.0191L113.36 75.0107V76.3431Z" fill="#8F9AA3"/>
<path fill-rule="evenodd" clip-rule="evenodd" d="M122.421 75.0107H123.756V80.793H122.421V78.6114H120.743V80.793H119.408V75.0107H120.743V77.2799H122.421V75.0107Z" fill="#8F9AA3"/>
<path fill-rule="evenodd" clip-rule="evenodd" d="M132.219 76.3431H129.829V77.2159H131.767V78.5482H129.829V79.4615H132.219V80.793H128.493V75.0191L132.219 75.0107V76.3431Z" fill="#8F9AA3"/>
<path fill-rule="evenodd" clip-rule="evenodd" d="M138.812 79.2946C138.744 79.3055 138.673 79.3123 138.605 79.319C138.537 79.3232 138.465 79.33 138.393 79.3342V80.7911H137.055V75.0324H138.393C138.723 75.0366 139.035 75.0981 139.327 75.2134C139.616 75.3295 139.871 75.4844 140.09 75.6763C140.309 75.8707 140.481 76.0954 140.603 76.3538C140.729 76.6088 140.79 76.8841 140.79 77.1786C140.79 77.4867 140.724 77.7754 140.592 78.0397C140.461 78.3031 140.277 78.5329 140.037 78.7273L141.318 80.7886H139.743L138.812 79.2946ZM138.393 77.9959C138.535 77.9909 138.671 77.9648 138.801 77.921C138.93 77.8781 139.044 77.8183 139.14 77.7443C139.239 77.6702 139.314 77.5852 139.37 77.4892C139.426 77.3908 139.454 77.2881 139.454 77.1786C139.454 77.0701 139.426 76.9674 139.37 76.8706C139.316 76.7772 139.239 76.6922 139.14 76.6198C139.044 76.5457 138.93 76.4868 138.801 76.443C138.671 76.3993 138.535 76.3732 138.393 76.369V77.9959Z" fill="#8F9AA3"/>
<path fill-rule="evenodd" clip-rule="evenodd" d="M149.693 76.3431H147.305V77.2159H149.244V78.5482H147.305V79.4615H149.693V80.793H145.967V75.0191L149.693 75.0107V76.3431Z" fill="#8F9AA3"/>
<path fill-rule="evenodd" clip-rule="evenodd" d="M26.6843 38.1251H24.2962V39.0008H26.2325V40.3307H24.2962V41.2457H26.6843V42.5755H22.9585V36.8018L26.6843 36.7952V38.1251Z" fill="#8F9AA3"/>
<path fill-rule="evenodd" clip-rule="evenodd" d="M33.2457 42.687C33.0615 42.687 32.8773 42.6629 32.6953 42.6127C32.5133 42.5625 32.34 42.4861 32.1777 42.3812C31.8926 42.1978 31.6712 41.9598 31.5133 41.6693C31.3554 41.3788 31.2764 41.0579 31.2764 40.7128H32.6142C32.6142 40.8701 32.6492 40.9924 32.7173 41.0797C32.7852 41.1671 32.8466 41.226 32.8993 41.2566C32.9935 41.3199 33.0966 41.3527 33.2085 41.3592C33.3181 41.3636 33.4277 41.3439 33.533 41.2959C33.6076 41.2653 33.6668 41.226 33.7106 41.178C33.7545 41.13 33.7896 41.0841 33.8137 41.0404C33.8378 40.9967 33.851 40.953 33.8576 40.9116C33.8619 40.8701 33.8664 40.8351 33.8664 40.809C33.8664 40.7827 33.8642 40.7478 33.8576 40.7063C33.8532 40.6648 33.8378 40.619 33.8137 40.5731C33.7896 40.5251 33.7567 40.4792 33.7106 40.4355C33.6668 40.3918 33.6054 40.3503 33.533 40.3132C33.476 40.287 33.4124 40.263 33.3466 40.2434C33.2808 40.2215 33.2107 40.1997 33.1361 40.1735C33.0045 40.132 32.8664 40.0839 32.7238 40.0315C32.5813 39.9792 32.4387 39.907 32.2962 39.8197C32.112 39.704 31.9563 39.5598 31.829 39.3873C31.7019 39.2148 31.612 39.027 31.5571 38.8283C31.5023 38.6295 31.4825 38.4222 31.5023 38.2103C31.5198 37.9985 31.5791 37.7932 31.6799 37.5988C31.7743 37.4198 31.8926 37.2648 32.0352 37.1337C32.1777 37.0027 32.3356 36.8979 32.5089 36.8237C32.6821 36.7472 32.8707 36.7014 33.0703 36.6861C33.2699 36.6708 33.4738 36.6882 33.68 36.7407C33.8795 36.7887 34.0615 36.863 34.2238 36.9656C34.3883 37.0683 34.5265 37.1905 34.6449 37.3368C34.7632 37.4809 34.8554 37.6425 34.9168 37.8216C34.9804 38.0006 35.0111 38.1863 35.0111 38.3807H33.68C33.68 38.2606 33.6427 38.1754 33.5659 38.1295C33.4891 38.0814 33.4212 38.0509 33.3641 38.0356C33.3532 38.0356 33.329 38.0312 33.2896 38.0247C33.2502 38.016 33.204 38.016 33.1558 38.0247C33.1054 38.0334 33.0549 38.0509 33.0024 38.0793C32.9497 38.1077 32.908 38.1535 32.8751 38.2169C32.8334 38.2999 32.8247 38.3893 32.851 38.4811C32.8773 38.5728 32.9299 38.6449 33.0089 38.6973C33.0835 38.7388 33.1646 38.7781 33.2545 38.8108C33.3444 38.8458 33.4387 38.8785 33.5396 38.9091C33.6295 38.9353 33.7194 38.9637 33.8115 38.9964C33.9036 39.027 33.9957 39.0642 34.0901 39.1057C34.4365 39.2629 34.7063 39.4944 34.9036 39.7979C35.101 40.1014 35.1997 40.4421 35.1997 40.8133C35.1997 41.1801 35.101 41.5165 34.9036 41.8222C34.7063 42.1257 34.4365 42.3572 34.0901 42.5144C33.9541 42.5777 33.8137 42.6236 33.6712 42.652C33.5308 42.6716 33.3882 42.687 33.2457 42.687Z" fill="#8F9AA3"/>
<path fill-rule="evenodd" clip-rule="evenodd" d="M43.2501 36.7712V38.1011H42.1339V42.5755H40.7984V38.1011H39.6909V36.7712H43.2501Z" fill="#8F9AA3"/>
<path fill-rule="evenodd" clip-rule="evenodd" d="M49.123 36.7712C49.5089 36.793 49.8707 36.8848 50.2107 37.0464C50.5505 37.2102 50.8466 37.422 51.0966 37.684C51.3466 37.946 51.544 38.2518 51.6909 38.5968C51.8357 38.944 51.908 39.3131 51.908 39.7083C51.908 40.0971 51.8378 40.4595 51.6953 40.8002C51.5528 41.1386 51.3553 41.4379 51.1054 41.6933C50.8554 41.951 50.5615 42.1563 50.2238 42.3113C49.8861 42.4664 49.5199 42.5537 49.1252 42.5755H47.7874V36.7625H49.1252V36.7712H49.123ZM49.123 41.2369C49.3291 41.2151 49.5199 41.1627 49.6953 41.0754C49.8729 40.988 50.0242 40.8788 50.1536 40.7434C50.283 40.6102 50.3839 40.453 50.4585 40.2739C50.533 40.0949 50.5681 39.907 50.5681 39.7061C50.5681 39.5008 50.5308 39.3065 50.4585 39.1187C50.3839 38.9331 50.2808 38.7672 50.1493 38.623C50.0177 38.4789 49.8642 38.361 49.6909 38.2692C49.5177 38.1776 49.3269 38.1208 49.1207 38.099V41.2369H49.123Z" fill="#8F9AA3"/>
<path fill-rule="evenodd" clip-rule="evenodd" d="M116.731 41.2457V42.5777H112.846V41.1408C113.233 40.9094 113.581 40.6757 113.895 40.4377C114.208 40.2019 114.476 39.9726 114.698 39.7542C114.919 39.5359 115.09 39.3372 115.21 39.1581C115.331 38.979 115.392 38.8348 115.392 38.7257C115.392 38.5575 115.335 38.4156 115.219 38.2999C115.104 38.1842 114.961 38.1273 114.792 38.1273C114.623 38.1273 114.48 38.1863 114.364 38.3043C114.248 38.42 114.191 38.5641 114.191 38.7344H112.846C112.846 38.4659 112.897 38.2169 113 37.9833C113.103 37.7495 113.244 37.5443 113.419 37.3696C113.597 37.1927 113.801 37.0551 114.035 36.9525C114.269 36.8499 114.522 36.7996 114.789 36.7996C115.059 36.7996 115.309 36.8499 115.544 36.9525C115.776 37.0551 115.982 37.1949 116.158 37.3696C116.333 37.5465 116.472 37.7495 116.574 37.9833C116.675 38.2169 116.728 38.468 116.728 38.7344C116.728 39.4966 116.158 40.3329 115.02 41.2479H116.731V41.2457Z" fill="#8F9AA3"/>
<path fill-rule="evenodd" clip-rule="evenodd" d="M124.182 36.7866C124.584 36.7866 124.958 36.863 125.311 37.0158C125.665 37.1687 125.971 37.374 126.234 37.6338C126.498 37.8937 126.706 38.1994 126.858 38.5509C127.011 38.9026 127.088 39.2781 127.088 39.6778C127.088 40.0774 127.011 40.453 126.858 40.8046C126.704 41.1561 126.498 41.4618 126.234 41.7217C125.971 41.9816 125.662 42.1869 125.311 42.3397C124.958 42.4925 124.584 42.5691 124.182 42.5691C123.781 42.5691 123.406 42.4925 123.052 42.3397C122.702 42.1869 122.392 41.9816 122.132 41.7217C121.871 41.4618 121.665 41.1561 121.511 40.8046C121.357 40.453 121.281 40.0774 121.281 39.6778C121.281 39.2781 121.357 38.9026 121.511 38.5509C121.665 38.1994 121.871 37.8937 122.132 37.6338C122.392 37.374 122.7 37.1687 123.052 37.0158C123.406 36.863 123.781 36.7866 124.182 36.7866ZM124.186 41.2369C124.403 41.2369 124.606 41.1955 124.796 41.1147C124.987 41.0339 125.152 40.9225 125.294 40.7805C125.436 40.6386 125.548 40.4726 125.63 40.2849C125.71 40.0949 125.752 39.894 125.752 39.6778C125.752 39.4616 125.71 39.2607 125.63 39.0707C125.548 38.8807 125.436 38.7169 125.294 38.575C125.152 38.433 124.984 38.3217 124.796 38.2409C124.607 38.1601 124.403 38.1186 124.186 38.1186C123.97 38.1186 123.767 38.1601 123.577 38.2409C123.386 38.3217 123.221 38.433 123.079 38.575C122.937 38.7169 122.825 38.8829 122.743 39.0707C122.663 39.2607 122.621 39.4616 122.621 39.6778C122.621 39.894 122.663 40.0949 122.743 40.2849C122.825 40.4748 122.937 40.6386 123.079 40.7805C123.221 40.9225 123.388 41.0339 123.577 41.1147C123.767 41.1955 123.97 41.2369 124.186 41.2369Z" fill="#8F9AA3"/>
<path fill-rule="evenodd" clip-rule="evenodd" d="M135.526 41.2457V42.5777H131.642V41.1408C132.029 40.9094 132.377 40.6757 132.691 40.4377C133.005 40.2019 133.272 39.9726 133.494 39.7542C133.715 39.5359 133.886 39.3372 134.007 39.1581C134.127 38.979 134.188 38.8348 134.188 38.7257C134.188 38.5575 134.132 38.4156 134.015 38.2999C133.899 38.1842 133.757 38.1273 133.588 38.1273C133.419 38.1273 133.276 38.1863 133.16 38.3043C133.044 38.42 132.987 38.5641 132.987 38.7344H131.642C131.642 38.4659 131.693 38.2169 131.796 37.9833C131.899 37.7495 132.04 37.5443 132.215 37.3696C132.392 37.1927 132.597 37.0551 132.831 36.9525C133.066 36.8499 133.318 36.7996 133.585 36.7996C133.856 36.7996 134.105 36.8499 134.34 36.9525C134.572 37.0551 134.779 37.1949 134.954 37.3696C135.129 37.5465 135.268 37.7495 135.371 37.9833C135.472 38.2169 135.524 38.468 135.524 38.7344C135.524 39.4966 134.954 40.3329 133.816 41.2479H135.526V41.2457Z" fill="#8F9AA3"/>
<path fill-rule="evenodd" clip-rule="evenodd" d="M142.978 36.7866C143.38 36.7866 143.754 36.863 144.108 37.0158C144.461 37.1687 144.767 37.374 145.031 37.6338C145.294 37.8937 145.502 38.1994 145.653 38.5509C145.807 38.9026 145.884 39.2781 145.884 39.6778C145.884 40.0774 145.807 40.453 145.653 40.8046C145.5 41.1561 145.294 41.4618 145.031 41.7217C144.767 41.9816 144.458 42.1869 144.108 42.3397C143.754 42.4925 143.38 42.5691 142.978 42.5691C142.577 42.5691 142.202 42.4925 141.849 42.3397C141.498 42.1869 141.189 41.9816 140.928 41.7217C140.666 41.4618 140.461 41.1561 140.307 40.8046C140.154 40.453 140.077 40.0774 140.077 39.6778C140.077 39.2781 140.154 38.9026 140.307 38.5509C140.461 38.1994 140.666 37.8937 140.928 37.6338C141.189 37.374 141.495 37.1687 141.849 37.0158C142.202 36.863 142.577 36.7866 142.978 36.7866ZM142.982 41.2369C143.2 41.2369 143.401 41.1955 143.592 41.1147C143.783 41.0339 143.947 40.9225 144.09 40.7805C144.232 40.6386 144.345 40.4726 144.425 40.2849C144.507 40.0949 144.548 39.894 144.548 39.6778C144.548 39.4616 144.507 39.2607 144.425 39.0707C144.345 38.8807 144.232 38.7169 144.09 38.575C143.947 38.433 143.781 38.3217 143.592 38.2409C143.401 38.1601 143.2 38.1186 142.982 38.1186C142.766 38.1186 142.564 38.1601 142.373 38.2409C142.182 38.3217 142.018 38.433 141.875 38.575C141.732 38.7169 141.621 38.8829 141.539 39.0707C141.459 39.2607 141.417 39.4616 141.417 39.6778C141.417 39.894 141.459 40.0949 141.539 40.2849C141.621 40.4748 141.732 40.6386 141.875 40.7805C142.018 40.9225 142.184 41.0339 142.373 41.1147C142.564 41.1955 142.766 41.2369 142.982 41.2369Z" fill="#8F9AA3"/>
<path fill-rule="evenodd" clip-rule="evenodd" d="M102.204 42.687H98.311C98.314 42.5559 98.314 42.4227 98.314 42.2895C98.314 33.417 94.702 25.3832 88.864 19.57C84.0921 14.8182 77.8334 11.5492 70.8422 10.5119L84.0307 0.134895C84.2479 -0.0420053 84.579 -0.0464037 84.8049 0.130496L102.555 14.0955C102.699 14.1937 102.794 14.3509 102.794 14.5278V42.1541C102.794 42.4468 102.529 42.687 102.204 42.687ZM94.881 42.687H91.682C91.684 42.5559 91.684 42.4227 91.684 42.2895C91.684 35.2404 88.814 28.8574 84.1755 24.2388C79.5373 19.6203 73.1272 16.7618 66.0483 16.7618V14.5278C66.0483 14.3771 66.1162 14.2286 66.2522 14.1238L66.932 13.5888C74.5439 13.8181 81.4146 16.9823 86.439 21.9874C91.656 27.1825 94.884 34.3626 94.884 42.2917C94.884 42.4227 94.884 42.5537 94.881 42.687ZM88.25 42.687H85.051C85.053 42.5559 85.055 42.4227 85.055 42.2895C85.055 37.0639 82.9277 32.3317 79.4868 28.9054C76.0483 25.4814 71.2961 23.361 66.0461 23.361V20.1749C72.1777 20.1749 77.7303 22.6513 81.7479 26.6519C85.766 30.6524 88.252 36.1817 88.252 42.2895C88.255 42.4227 88.252 42.5537 88.25 42.687ZM81.6184 42.687H78.4167C78.4211 42.5559 78.4233 42.4227 78.4233 42.2895C78.4233 38.8851 77.0373 35.8038 74.7983 33.5743C72.5593 31.3447 69.4628 29.9646 66.0461 29.9646V26.7786C70.3466 26.7786 74.2413 28.5146 77.0614 31.3229C79.8795 34.1289 81.6251 38.0072 81.6251 42.2917C81.6251 42.4227 81.6229 42.5537 81.6184 42.687ZM74.9869 42.687H71.783C71.7917 42.5559 71.7961 42.4227 71.7961 42.2895C71.7961 40.7085 71.1514 39.2781 70.1119 38.2409C69.0724 37.2058 67.6338 36.5638 66.0461 36.5638V33.3777C68.5176 33.3777 70.7545 34.3757 72.3729 35.9873C73.9912 37.5989 74.9934 39.8284 74.9934 42.2874C74.9956 42.4227 74.9913 42.5537 74.9869 42.687Z" fill="#8F9AA3"/>
</svg>
